<svg xmlns="http://www.w3.org/2000/svg" version="1.1" xmlns:xlink="http://www.w3.org/1999/xlink" xmlns:svgjs="http://svgjs.dev/svgjs" width="2000" height="388" viewBox="0 0 2000 388"><g transform="matrix(1,0,0,1,-1.2121212121212466,-0.21786131577110268)"><svg viewBox="0 0 396 77" data-background-color="#ffffff" preserveAspectRatio="xMidYMid meet" height="388" width="2000" xmlns="http://www.w3.org/2000/svg" xmlns:xlink="http://www.w3.org/1999/xlink"><g id="tight-bounds" transform="matrix(1,0,0,1,0.2400000000000091,0.04323536421230756)"><svg viewBox="0 0 395.52 76.91352927157541" height="76.91352927157541" width="395.52"><g><svg viewBox="0 0 512.1194265934654 99.58766309627559" height="76.91352927157541" width="395.52"><g transform="matrix(1,0,0,1,0,13.76356269999178)"><svg viewBox="0 0 395.52 72.06053769629203" height="72.06053769629203" width="395.52"><g id="textblocktransform"><svg viewBox="0 0 395.52 72.06053769629203" height="72.06053769629203" width="395.52" id="textblock"><g><svg viewBox="0 0 395.52 72.06053769629203" height="72.06053769629203" width="395.52"><g transform="matrix(1,0,0,1,0,0)"><svg width="395.52" viewBox="0.29 -34.4 296.94 54.099999999999994" height="72.06053769629203" data-palette-color="#292560"><path d="M12.26 8.01L12.26 8.01Q11.28 8.01 11.28 6.57 11.28 5.13 11.62 2.7 11.96 0.27 11.96-0.76 11.96-1.78 11.82-2.32L11.82-2.32 1.9-31.15Q1.37-32.64 0.29-33.37L0.29-33.37 0.63-33.86Q1.81-33.06 3.25-33.06L3.25-33.06 12.21-33.06Q13.72-33.06 14.45-34.08L14.45-34.08 15.09-33.59Q14.58-32.93 14.58-31.86 14.58-30.79 15.33-28.45 16.09-26.12 16.99-23.97L16.99-23.97Q19.38-18.21 19.38-14.82L19.38-14.82 19.7-14.82Q19.7-18.07 22.6-24.01 25.49-29.96 25.49-32.32L25.49-32.32Q25.49-32.98 25.05-33.62L25.05-33.62 25.68-34.11Q26.42-33.06 27.91-33.06L27.91-33.06 34.81-33.06Q36.28-33.06 37.01-34.11L37.01-34.11 37.67-33.62Q37.21-33.01 37.21-32.03 37.21-31.05 38.1-28.7 38.99-26.34 40.06-24.12L40.06-24.12Q42.94-18.16 42.99-14.82L42.99-14.82 43.31-14.82Q43.31-18.31 45.7-23.96 48.1-29.61 48.1-32.18L48.1-32.18Q48.1-32.98 47.63-33.59L47.63-33.59 48.27-34.08Q49-33.06 50.51-33.06L50.51-33.06 59.47-33.06Q60.91-33.06 62.08-33.86L62.08-33.86 62.4-33.37Q61.33-32.64 60.82-31.15L60.82-31.15Q60.64-30.64 59.33-26.98 58.01-23.32 56.69-19.57 55.37-15.82 53.96-11.67L53.96-11.67Q50.71-2.27 50.71-1.39 50.71-0.51 51.17 0.1L51.17 0.1 50.51 0.59Q49.78-0.46 48.29-0.46L48.29-0.46 39.23-0.49Q37.72-0.49 37.01 0.54L37.01 0.54 36.35 0.1Q36.79-0.49 36.79-1.53 36.79-2.56 35.96-4.82 35.13-7.08 34.13-9.16L34.13-9.16Q31.49-14.72 31.49-17.9L31.49-17.9 31.2-17.9Q31.2-14.67 28.54-9.12 25.88-3.56 25.88-1.25L25.88-1.25Q25.88-0.46 26.34 0.1L26.34 0.1 25.68 0.54Q24.98-0.49 23.46-0.49L23.46-0.49 14.43-0.46Q12.99-0.46 12.99 0.39L12.99 0.39 13.4 6.37Q13.4 6.98 13.11 7.5 12.82 8.01 12.26 8.01ZM65.13 1.56L65.13 1.56 65.21 5.44Q65.21 6.62 64.84 7.21 64.48 7.81 63.96 7.81L63.96 7.81Q62.94 7.81 62.94 5.83 62.94 3.86 63.43 1.45 63.91-0.95 64.28-1.86L64.28-1.86 76-30.69Q76.24-31.32 76.24-31.93 76.24-32.54 75.83-33.13L75.83-33.13 76.51-33.57Q77.22-32.52 78.71-32.52L78.71-32.52 89.94-32.52Q91.4-32.52 92.11-33.57L92.11-33.57 92.82-33.13Q92.4-32.54 92.4-32.01 92.4-31.47 92.7-30.71L92.7-30.71 104.76-1.83Q105.32-0.46 106.49 0.32L106.49 0.32 106.2 0.78Q105 0 103.54 0L103.54 0 98.75 0Q98.8 0.54 98.8 0.76L98.8 0.76Q98.8 1.56 98.14 1.56L98.14 1.56Q97.85 1.56 97.62 1.33 97.39 1.1 97.39 0.67 97.39 0.24 97.43 0L97.43 0 94.48 0Q93.41 0 93.09 1.17L93.09 1.17Q92.7 2.61 92.7 4.48 92.7 6.35 92.94 7.89 93.19 9.42 93.19 10 93.19 10.57 92.91 10.93 92.62 11.28 92.21 11.28 91.79 11.28 91.5 10.94 91.21 10.6 91.21 9.99 91.21 9.38 91.51 7.62 91.82 5.86 91.82 4.98L91.82 4.98 91.82-1.88Q91.57-2.54 91.57-3.1 91.57-3.66 92.01-4.3L92.01-4.3 91.38-4.76Q90.65-3.71 89.18-3.71L89.18-3.71 79.15-3.71Q77.68-3.71 76.95-4.74L76.95-4.74 76.32-4.3Q76.78-3.64 76.78-3.08 76.78-2.51 76.61-1.88L76.61-1.88 76.61-1.86Q76.39-1.03 76.39-0.59 76.39-0.15 76.88 0.56L76.88 0.56 76.24 1.03Q75.51 0 74.05 0L74.05 0 65.21 0Q65.13 0.46 65.13 1.56ZM81.66-10.47L81.66-10.47 86.33-10.47Q87.79-10.47 88.96-9.69L88.96-9.69 89.28-10.16Q88.13-10.94 87.62-12.33L87.62-12.33 84.52-20.26Q83.98-21.66 83.96-23.1L83.96-23.1 83.64-23.1Q83.59-21.48 83.15-20.26L83.15-20.26 80.34-12.35Q79.83-10.94 78.71-10.16L78.71-10.16 79.03-9.67Q80.17-10.47 81.66-10.47ZM97.51 8.08L97.51 8.08Q97.51 6.4 98.14 3.86L98.14 3.86Q98.85 6.79 98.85 7.67L98.85 7.67Q98.85 8.96 98.18 8.96 97.51 8.96 97.51 8.08ZM119.43 7.57L119.43 7.57 120.01 0.95Q120.01 0.17 119.14-0.34L119.14-0.34Q117.7-1.15 115.62-1.15L115.62-1.15Q112.84-1.15 111.79-0.05L111.79-0.05Q111.32 0.44 111.32 1.38 111.32 2.32 111.88 4.66 112.45 7.01 112.45 7.97 112.45 8.94 112.09 9.51 111.74 10.08 111.05 10.08 110.37 10.08 110 9.51 109.64 8.94 109.64 7.96 109.64 6.98 110.24 4.59 110.83 2.2 110.83 0.98L110.83 0.98 110.81-28.96Q110.81-31.84 109.05-33.76L109.05-33.76 109.57-34.28Q111.54-32.52 114.37-32.52L114.37-32.52 121.67-32.52Q123.24-32.52 124.32-32.9 125.41-33.28 126.07-34.4L126.07-34.4 126.87-34.01Q126.24-32.5 126.24-31.15L126.24-31.15Q126.24-30.05 130.1-25.63L130.1-25.63Q135.13-19.87 136.57-17.9 138.01-15.92 138.45-14.7L138.45-14.7 139.91-14.7Q138.72-16.46 138.72-19.65L138.72-19.65Q138.72-21.14 139.08-24.11 139.45-27.08 139.45-28.56L139.45-28.56Q139.45-32.57 136.91-33.76L136.91-33.76 137.42-34.28Q139.4-32.52 142.23-32.52L142.23-32.52 147.24-32.52Q150.07-32.52 152.05-34.28L152.05-34.28 152.53-33.76Q150.8-31.81 150.8-28.96L150.8-28.96 150.75 0.85Q150.75 1.9 151.24 3.99 151.73 6.08 151.73 7.13L151.73 7.13Q151.73 8.69 150.53 8.69 149.34 8.69 149.34 7.13L149.34 7.13Q149.34 6.1 149.8 4.11 150.26 2.12 150.26 1.38 150.26 0.63 149.78 0.32 149.29 0 148.82 0L148.82 0 139.18 0Q137.13 0 137.13 3.74L137.13 3.74Q137.13 5.27 137.7 8.19 138.28 11.11 138.28 12.6L138.28 12.6Q138.28 14.72 136.69 14.72 135.1 14.72 135.1 12.57L135.1 12.57Q135.1 11.21 135.72 8.59 136.35 5.98 136.37 4.66L136.37 4.66 136.42 1.42Q136.49-0.85 135.96-1.54L135.96-1.54 124.26-16.36Q123.8-16.97 123.24-18.9L123.24-18.9 121.75-18.85Q123.02-17.53 123.02-15.92L123.02-15.92 123.02-1.98 123.48 10.38Q123.48 10.77 123.25 11.05 123.02 11.33 122.61 11.33 122.21 11.33 121.94 11 121.67 10.67 121.67 10.25L121.67 10.25 121.97 0.88Q121.97 0.59 121.75 0.34 121.53 0.1 121.24 0.1L121.24 0.1Q120.6 0.1 120.6 1.07 120.6 2.05 120.93 4.27 121.26 6.49 121.26 7.32L121.26 7.32Q121.26 9.18 120.34 9.18 119.43 9.18 119.43 7.57ZM172.48 6.03L172.48 6.03 172.97 2.56Q172.97 1.98 172.73 0.99 172.5 0 172.09 0L172.09 0 161.83 0Q160.39 0 159.42 0.95L159.42 0.95 158.93 0.46Q159.86-0.46 159.86-1.98L159.86-1.98 159.86-30.54Q159.86-32.08 158.93-32.98L158.93-32.98 159.42-33.5Q160.42-32.52 161.83-32.52L161.83-32.52 182.02-32.52Q196.62-32.52 200.14-23.02L200.14-23.02Q201.12-20.34 201.12-16.92L201.12-16.92Q201.12-7.25 195.89-3.39L195.89-3.39Q192.3-0.73 185.12-0.2L185.12-0.2Q182.34 0.02 178.7 0.01 175.07 0 174.46 0L174.46 0Q174.04 0 173.75 1.17 173.45 2.34 173.45 2.93L173.45 2.93 173.87 6.05Q173.87 6.98 173.17 6.98 172.48 6.98 172.48 6.03ZM186.44-10.78Q187.18-11.74 187.59-13.29 188.01-14.84 188.01-17.03 188.01-19.21 187.27-20.68 186.54-22.14 185.32-22.83 184.1-23.51 182.61-23.84 181.12-24.17 179.5-24.21 177.87-24.24 176.46-24.27L176.46-24.27Q172.99-24.32 172.01-25.29L172.01-25.29 171.53-24.8Q172.48-23.88 172.48-22.36L172.48-22.36Q172.48-11.45 172.53-8.35L172.53-8.35 178.07-8.35Q182.22-8.35 183.96-9.08 185.71-9.81 186.44-10.78ZM221.35-4.05L221.35-4.05 220.96-7.08 220.96-7.35Q221.47-8.25 222.35-8.25L222.35-8.25 242.28-8.23Q243.76-8.23 244.69-9.18L244.69-9.18 245.18-8.69Q244.11-7.62 244.11-4.59L244.11-4.59Q244.11-4.59 244.11-3.17L244.11-3.17Q244.11-0.71 245.18 0.42L245.18 0.42 244.69 0.9Q243.74-0.05 242.28-0.05L242.28-0.05 213.39-0.05Q211.22-0.05 210.2 0.78L210.2 0.78Q209.02 1.76 209.02 6.3L209.02 6.3Q209.02 8.13 209.58 11.71 210.15 15.28 210.15 17.09L210.15 17.09Q210.15 19.7 208.29 19.7L208.29 19.7Q206.29 19.7 206.29 17.02L206.29 17.02Q206.29 15.19 207.09 11.6 207.9 8.01 207.9 6.15L207.9 6.15 207.78-2.03 207.78-30.49Q207.78-32.01 206.85-32.91L206.85-32.91 207.34-33.42Q208.34-32.47 209.78-32.47L209.78-32.47 241.13-32.47Q242.62-32.47 243.57-33.42L243.57-33.42 244.06-32.91Q242.98-31.84 242.98-28.86L242.98-28.86 242.98-27.49Q242.98-24.88 244.06-23.83L244.06-23.83 243.57-23.36Q242.35-24.61 237.83-24.61L237.83-24.61 225.7-24.05Q221.21-24.05 219.99-25.29L219.99-25.29 219.47-24.8Q220.42-23.88 220.42-22.35 220.42-20.83 219.47-19.9L219.47-19.9 219.99-19.43Q221.16-20.65 224.92-20.65L224.92-20.65 235.15-20.09Q238.93-20.09 240.15-21.31L240.15-21.31 240.66-20.83Q239.59-19.75 239.59-16.7L239.59-16.7 239.59-15.33Q239.59-12.82 240.66-11.69L240.66-11.69 240.15-11.18Q238.98-12.4 235.2-12.4L235.2-12.4 224.97-11.87Q221.21-11.87 219.99-13.09L219.99-13.09 219.5-12.6Q220.23-11.87 220.35-10.85 220.47-9.84 220.5-9.41 220.52-8.98 220.5-8.09 220.47-7.2 220.47-7.03L220.47-7.03 220.06-4.1Q220.06-3.22 220.71-3.22 221.35-3.22 221.35-4.05ZM290.59 8.01L290.59 8.01 291.13 2.95Q291.13-0.12 288.62-1.75 286.12-3.37 283.36-3.19 280.6-3 279.5-1.32L279.5-1.32Q278.94-0.51 278.94 0.59L278.94 0.59 278.82 7.13Q278.82 8.47 279.24 11.12 279.65 13.77 279.65 15.11L279.65 15.11Q279.65 17.48 278.31 17.48 276.97 17.48 276.97 15.19L276.97 15.19Q276.97 13.67 277.4 10.84 277.84 8.01 277.9 6.54 277.97 5.08 277.97 0.29L277.97 0.29Q277.97-0.98 277.18-2.64 276.4-4.3 274.72-7.2 273.03-10.11 271.96-12.33L271.96-12.33 271.23-12.74Q270.64-11.67 269.15-11.67L269.15-11.67 267.1-11.6Q265-11.6 263.95-12.62L263.95-12.62 263.44-12.13Q263.51-11.23 263.51-8.28L263.51-8.28 263.49-2.29Q263.49 0.39 263.59 1.66L263.59 1.66 264.05 5.25Q264.05 6.25 263.37 6.25 262.68 6.25 262.68 5.32L262.68 5.32 263.07 2.29Q263.07 1.2 262.43 0.55 261.78-0.1 260.74-0.1 259.7-0.1 258.91 0.82 258.12 1.73 258.12 3.2 258.12 4.66 258.65 7.17 259.19 9.67 259.19 10.77L259.19 10.77Q259.19 13.06 257.56 13.06 255.92 13.06 255.92 10.82L255.92 10.82Q255.92 9.77 256.4 7.15 256.87 4.54 256.87 3 256.87 1.46 256.16 0.48 255.46-0.51 254.55-0.51 253.65-0.51 253.01 0.11 252.38 0.73 252.38 1.66L252.38 1.66 253.04 7.45Q253.04 8.94 251.94 8.94 250.84 8.94 250.84 7.42L250.84 7.42Q250.84 6.54 251.31 4.36 251.77 2.17 251.75 0.95 251.72-0.27 251.72-30.64L251.72-30.64Q251.72-32.15 250.79-33.06L250.79-33.06 251.28-33.54Q252.23-32.62 253.7-32.62L253.7-32.62 275.57-32.62Q280.7-32.62 282.47-32.31 284.24-32.01 285.57-31.67 286.9-31.32 287.82-30.82 288.73-30.32 289.67-29.58 290.61-28.83 291.17-27.88L291.17-27.88Q292.47-25.71 292.47-23.27 292.47-20.83 292.09-19.27 291.71-17.72 290.83-16.36L290.83-16.36Q288.93-13.4 284.14-13.4L284.14-13.4 283.95-12.84Q285.49-12.23 286-11.16L286-11.16Q288.15-6.47 289.17-5.21 290.2-3.96 291.08-3.2 291.96-2.44 293.59-1.66 295.23-0.88 295.57-0.65 295.91-0.42 295.91-0.27L295.91-0.27Q295.91 2.17 296.57 6.01 297.23 9.84 297.23 10.94 297.23 12.04 297.14 12.52 297.06 13.01 296.76 13.49 296.47 13.96 295.91 13.96 295.35 13.96 295.07 13.16 294.79 12.35 294.79 11.18 294.79 10.01 295.1 6.99 295.42 3.98 295.42 2.44L295.42 2.44Q295.42-0.61 293.44-0.61L293.44-0.61Q292.47-0.61 291.99-0.27 291.52 0.07 291.52 1.14 291.52 2.2 291.96 4.52 292.39 6.84 292.39 8.02 292.39 9.2 291.49 9.2 290.59 9.2 290.59 8.01ZM274.33-24.51L274.33-24.51 268.57-24.34Q265.03-24.34 263.95-25.39L263.95-25.39 263.44-24.93Q264.42-23.97 264.42-22.49L264.42-22.49 264.42-20.85Q264.42-19.38 263.44-18.41L263.44-18.41 263.95-17.92Q265-18.99 268.3-18.99L268.3-18.99 274.47-18.77Q276.94-18.77 278.3-19.42 279.65-20.07 279.65-21.8L279.65-21.8Q279.65-22.9 278.89-23.52 278.14-24.15 277.06-24.33 275.99-24.51 274.33-24.51Z" opacity="1" transform="matrix(1,0,0,1,0,0)" fill="#292560" class="wordmark-text-0" data-fill-palette-color="primary" id="text-0"></path></svg></g></svg></g></svg></g></svg></g><g transform="matrix(1,0,0,1,412.53176349718984,0)"><svg viewBox="0 0 99.58766309627559 99.58766309627559" height="99.58766309627559" width="99.58766309627559"><g data-palette-color="#182d31"><rect width="27.220627912981996" height="99.58766309627559" fill="#182d31" stroke="transparent" data-fill-palette-color="accent" x="0" fill-opacity="1"></rect><rect width="27.220627912981996" height="99.58766309627559" fill="#182d31" stroke="transparent" data-fill-palette-color="accent" x="33.19588769875853" fill-opacity="0.75"></rect><rect width="27.220627912981996" height="99.58766309627559" fill="#182d31" stroke="transparent" data-fill-palette-color="accent" x="66.39177539751707" fill-opacity="0.5"></rect></g></svg></g></svg></g><defs></defs></svg><rect width="395.52" height="76.91352927157541" fill="none" stroke="none" visibility="hidden"></rect></g></svg></g></svg>