<svg xmlns="http://www.w3.org/2000/svg" version="1.1" xmlns:xlink="http://www.w3.org/1999/xlink" xmlns:svgjs="http://svgjs.dev/svgjs" width="2000" height="590" viewBox="0 0 2000 590"><g transform="matrix(1,0,0,1,-1.2121212121212466,0.3286639878029973)"><svg viewBox="0 0 396 117" data-background-color="#ececea" preserveAspectRatio="xMidYMid meet" height="590" width="2000" xmlns="http://www.w3.org/2000/svg" xmlns:xlink="http://www.w3.org/1999/xlink"><g id="tight-bounds" transform="matrix(1,0,0,1,0.2400000000000091,-0.0651757399541566)"><svg viewBox="0 0 395.52 117.13035147990828" height="117.13035147990828" width="395.52"><g><svg viewBox="0 0 395.52 117.13035147990828" height="117.13035147990828" width="395.52"><g><svg viewBox="0 0 395.52 117.13035147990828" height="117.13035147990828" width="395.52"><g id="textblocktransform"><svg viewBox="0 0 395.52 117.13035147990828" height="117.13035147990828" width="395.52" id="textblock"><g><svg viewBox="0 0 395.52 82.27186667961362" height="82.27186667961362" width="395.52"><g transform="matrix(1,0,0,1,0,0)"><svg width="395.52" viewBox="-0.000010000000000287557 -3.1086244689504383e-15 230.24551 47.893240000000006" height="82.27186667961362" data-palette-color="url(#c134b80f-45af-4527-a06f-c0aae55b8c3b)"><g class="wordmark-text-0" data-fill-palette-color="primary" id="text-0"></g></svg></g></svg></g><g transform="matrix(1,0,0,1,118.31980799999998,89.1288819067971)"><svg viewBox="0 0 158.88038400000002 28.001469573111176" height="28.001469573111176" width="158.88038400000002"><g transform="matrix(1,0,0,1,0,0)"><svg width="158.88038400000002" viewBox="1.32 -39.21 339.91 59.91" height="28.001469573111176" data-palette-color="url(#4c29d5af-1f5f-4810-a697-64ac7eceda06)"></svg></g></svg></g></svg></g></svg></g><g></g></svg></g><defs></defs><mask id="74f9d3e3-07a7-415f-a85d-c4b6b637ec11"><g id="SvgjsG1737"><svg viewBox="0 0 395.52 117.13035147990828" height="117.13035147990828" width="395.52"><g><svg viewBox="0 0 395.52 117.13035147990828" height="117.13035147990828" width="395.52"><g><svg viewBox="0 0 395.52 117.13035147990828" height="117.13035147990828" width="395.52"><g id="SvgjsG1736"><svg viewBox="0 0 395.52 117.13035147990828" height="117.13035147990828" width="395.52" id="SvgjsSvg1735"><g><svg viewBox="0 0 395.52 82.27186667961362" height="82.27186667961362" width="395.52"><g transform="matrix(1,0,0,1,0,0)"><svg width="395.52" viewBox="-0.000010000000000287557 -3.1086244689504383e-15 230.24551 47.893240000000006" height="82.27186667961362" data-palette-color="url(#c134b80f-45af-4527-a06f-c0aae55b8c3b)"><g class="wordmark-text-0" data-fill-palette-color="primary" id="SvgjsG1734"><path d="M15.836 47.864v0c0.001-0.115-0.007-0.249-0.025-0.401-0.019-0.152-0.039-0.294-0.061-0.426v0c-0.115-0.691-0.347-1.5-0.697-2.429-0.351-0.935-0.886-1.921-1.605-2.957v0c-0.738-1.067-1.462-1.886-2.171-2.458-0.717-0.577-1.38-0.906-1.989-0.988v0c0.261-0.138 0.357-0.417 0.287-0.838v0c-0.035-0.21-0.095-0.491-0.18-0.842-0.086-0.357-0.228-0.763-0.425-1.217-0.197-0.454-0.47-0.942-0.821-1.466-0.356-0.515-0.815-1.041-1.376-1.576v0c-0.335-0.309-0.744-0.596-1.227-0.86-0.477-0.266-0.978-0.497-1.504-0.694-0.531-0.189-1.058-0.328-1.58-0.417-0.528-0.088-1.003-0.097-1.423-0.028v0c0.008-0.481-0.007-1.002-0.047-1.563-0.032-0.562-0.105-1.182-0.217-1.86v0c-0.191-1.151-0.449-2.098-0.775-2.841v0c0.496 0.1 1.319 0.112 2.469 0.037 1.151-0.069 2.7-0.265 4.647-0.588v0c0.993-0.165 2.044-0.346 3.153-0.544 1.104-0.19 2.156-0.388 3.156-0.594 0.993-0.205 1.881-0.413 2.663-0.624 0.782-0.217 1.354-0.431 1.719-0.64v0c-0.031 0.424-0.031 0.87-0.001 1.339 0.025 0.476 0.086 1.009 0.184 1.601v0c0.225 1.355 0.493 2.466 0.806 3.333v0c-1.158 0.192-1.975 0.459-2.452 0.802-0.484 0.344-0.679 0.798-0.584 1.364v0c0.072 0.434 0.31 0.993 0.713 1.676 0.404 0.683 0.889 1.451 1.457 2.303 0.575 0.858 1.188 1.783 1.839 2.776 0.652 1 1.264 2.037 1.833 3.112v0c0.231-1.093 0.506-2.186 0.825-3.279 0.312-1.092 0.599-2.137 0.859-3.133 0.266-1.004 0.478-1.927 0.635-2.771 0.157-0.844 0.189-1.552 0.094-2.124v0c-0.107-0.645-0.41-1.023-0.908-1.137-0.5-0.12-1.256-0.096-2.269 0.072v0c-0.012-0.478-0.044-0.996-0.095-1.555-0.052-0.559-0.134-1.177-0.247-1.855v0c-0.098-0.592-0.209-1.121-0.334-1.586-0.125-0.466-0.258-0.886-0.402-1.262v0c0.797 0.037 1.721 0.029 2.774-0.024 1.06-0.047 2.271-0.184 3.632-0.409v0c2.039-0.338 3.686-0.675 4.941-1.012 1.263-0.331 2.081-0.612 2.455-0.843v0c-0.031 0.424-0.031 0.87-0.001 1.338 0.025 0.476 0.086 1.009 0.184 1.602v0c0.225 1.355 0.493 2.466 0.806 3.333v0c-0.71 0.118-1.284 0.247-1.72 0.386-0.436 0.14-0.779 0.295-1.028 0.465-0.241 0.175-0.398 0.37-0.47 0.584-0.071 0.221-0.083 0.477-0.035 0.767v0c0.072 0.434 0.31 0.993 0.713 1.675 0.404 0.683 0.889 1.451 1.457 2.303 0.575 0.858 1.188 1.783 1.839 2.777 0.652 1 1.264 2.037 1.833 3.112v0c0.231-1.093 0.506-2.186 0.825-3.279 0.312-1.092 0.599-2.137 0.859-3.133 0.266-1.004 0.478-1.927 0.635-2.771 0.157-0.844 0.189-1.552 0.094-2.124v0c-0.107-0.645-0.439-1.019-0.997-1.122-0.552-0.111-1.286-0.091-2.199 0.06v0c0.01-0.921-0.098-2.058-0.323-3.413v0c-0.191-1.151-0.446-2.099-0.766-2.843v0c0.234 0.11 0.605 0.167 1.113 0.17 0.513-0.004 1.098-0.04 1.756-0.108 0.658-0.069 1.355-0.161 2.093-0.277 0.739-0.109 1.447-0.22 2.125-0.331v0c0.592-0.098 1.247-0.224 1.964-0.377 0.718-0.153 1.401-0.31 2.051-0.472 0.65-0.155 1.222-0.311 1.717-0.467 0.494-0.156 0.822-0.299 0.983-0.426v0c-0.031 0.424-0.025 0.869 0.019 1.334 0.051 0.471 0.126 1.003 0.224 1.595v0c0.225 1.355 0.49 2.466 0.796 3.335v0c-0.881 0.146-1.709 0.557-2.482 1.233-0.774 0.669-1.417 1.543-1.927 2.62v0c-0.298 0.61-0.514 1.2-0.65 1.77-0.136 0.563-0.226 1.085-0.267 1.565-0.05 0.475-0.06 0.899-0.032 1.272 0.036 0.379 0.073 0.687 0.112 0.924v0c0.07 0.421 0.247 0.655 0.532 0.703v0c-0.412 0.204-0.849 0.627-1.309 1.271-0.461 0.644-0.874 1.432-1.24 2.365-0.367 0.926-0.637 1.947-0.81 3.064-0.166 1.116-0.156 2.236 0.03 3.36v0c0.037 0.224 0.082 0.436 0.136 0.636 0.059 0.193 0.12 0.375 0.182 0.548v0c-0.158-0.055-0.473-0.08-0.945-0.076-0.466 0.003-0.996 0.023-1.592 0.061-0.594 0.044-1.2 0.101-1.816 0.169-0.617 0.069-1.149 0.14-1.597 0.214v0c-0.487 0.081-0.977 0.182-1.47 0.305-0.5 0.123-0.978 0.253-1.435 0.39-0.458 0.13-0.879 0.264-1.262 0.402-0.383 0.138-0.687 0.259-0.912 0.364v0c-0.005-0.114-0.017-0.247-0.036-0.4-0.012-0.153-0.029-0.296-0.051-0.427v0c-0.072-0.434-0.19-0.921-0.354-1.462-0.164-0.54-0.388-1.115-0.671-1.723-0.282-0.602-0.633-1.23-1.052-1.884-0.425-0.646-0.931-1.292-1.517-1.938v0c-0.293 0.596-0.532 1.234-0.717 1.913-0.184 0.686-0.319 1.357-0.406 2.014-0.094 0.658-0.138 1.287-0.133 1.887-0.001 0.608 0.036 1.136 0.11 1.583v0c0.037 0.224 0.086 0.435 0.146 0.635 0.052 0.194 0.11 0.377 0.172 0.549v0c-0.158-0.055-0.47-0.081-0.935-0.078-0.472 0.004-1.006 0.025-1.602 0.063-0.594 0.044-1.2 0.101-1.816 0.17-0.617 0.069-1.143 0.139-1.577 0.21v0c-0.48 0.08-0.97 0.181-1.47 0.305-0.5 0.123-0.982 0.254-1.445 0.392-0.465 0.131-0.882 0.265-1.252 0.4-0.376 0.137-0.68 0.258-0.913 0.364z" fill="white"></path><path d="M53.87 38.043v0c0.172-0.39 0.287-0.832 0.343-1.326 0.056-0.5 0.061-0.999 0.016-1.498v0c-0.046-0.518-0.15-1.034-0.309-1.548-0.166-0.507-0.35-0.912-0.551-1.216v0c0.418-0.185 0.789-0.456 1.112-0.813 0.316-0.356 0.582-0.748 0.798-1.176 0.216-0.428 0.388-0.861 0.515-1.301 0.122-0.433 0.19-0.83 0.205-1.193v0c0.089 0.025 0.18 0.034 0.273 0.026 0.1-0.009 0.206-0.018 0.319-0.029v0c1.202-0.108 2.643-0.351 4.322-0.729 1.68-0.378 3.492-0.845 5.436-1.401v0c0.907-0.255 1.652-0.54 2.233-0.853 0.574-0.319 1.025-0.661 1.354-1.025 0.322-0.364 0.536-0.744 0.64-1.142 0.104-0.404 0.137-0.826 0.098-1.264v0c-0.071-0.79-0.325-1.383-0.762-1.779-0.437-0.396-1.14-0.55-2.11-0.463v0c-1.282 0.115-2.199 0.522-2.752 1.22-0.547 0.692-0.755 1.768-0.624 3.229v0c-0.55-0.085-1.205-0.119-1.967-0.105-0.769 0.009-1.615 0.055-2.538 0.138v0c-0.471 0.042-0.945 0.095-1.422 0.157-0.477 0.056-0.943 0.118-1.399 0.186-0.45 0.06-0.868 0.135-1.255 0.223-0.381 0.081-0.708 0.167-0.98 0.259v0c0.054-0.514 0.09-1.089 0.106-1.726 0.016-0.637-0.013-1.378-0.089-2.221v0c-0.025-0.279-0.051-0.534-0.079-0.766-0.035-0.238-0.072-0.469-0.112-0.693-0.047-0.223-0.105-0.459-0.174-0.707-0.069-0.248-0.161-0.521-0.274-0.819v0c0.684-0.061 1.425-0.198 2.222-0.41 0.798-0.212 1.571-0.466 2.321-0.761 0.75-0.295 1.427-0.623 2.03-0.985 0.603-0.369 1.062-0.738 1.377-1.108v0c0.305 0.12 0.599 0.221 0.88 0.303 0.288 0.081 0.612 0.143 0.971 0.184 0.365 0.041 0.785 0.057 1.259 0.047 0.474-0.009 1.044-0.043 1.708-0.103v0c1.521-0.136 2.815-0.333 3.882-0.589 1.062-0.249 1.817-0.524 2.266-0.826v0c0.302 0.461 0.716 0.89 1.239 1.285 0.524 0.395 1.089 0.726 1.696 0.992 0.606 0.26 1.212 0.457 1.82 0.59 0.608 0.14 1.155 0.188 1.639 0.144v0l0.219-0.02c-0.115 0.365-0.19 0.867-0.226 1.507-0.042 0.646-0.062 1.364-0.058 2.153 0.004 0.796 0.032 1.63 0.084 2.503 0.045 0.879 0.093 1.745 0.143 2.598 0.05 0.859 0.109 1.66 0.176 2.403 0.067 0.744 0.123 1.374 0.169 1.893v0c0.06 0.664 0.165 1.2 0.315 1.608 0.156 0.401 0.411 0.699 0.763 0.896 0.352 0.196 0.834 0.31 1.447 0.342 0.618 0.025 1.412-0.006 2.381-0.094v0c-0.049 0.199-0.087 0.443-0.115 0.734-0.034 0.291-0.06 0.598-0.078 0.92-0.017 0.33-0.025 0.658-0.022 0.986 0.003 0.328 0.016 0.628 0.041 0.9v0c0.114 1.268 0.368 2.276 0.763 3.024v0c-0.401-0.145-1.045-0.234-1.932-0.268-0.887-0.034-1.848-0.005-2.883 0.088v0c-1.169 0.105-2.199 0.254-3.093 0.448-0.886 0.193-1.58 0.403-2.082 0.628v0c-0.213-0.878-0.526-1.569-0.939-2.074-0.413-0.498-0.819-0.887-1.219-1.166v0c-0.548 0.23-1.045 0.515-1.49 0.857-0.445 0.341-0.834 0.704-1.167 1.089-0.334 0.378-0.598 0.753-0.793 1.125-0.195 0.366-0.314 0.681-0.356 0.946v0c-0.38-0.06-0.724-0.126-1.032-0.199-0.308-0.073-0.622-0.138-0.942-0.197-0.313-0.059-0.651-0.099-1.014-0.12-0.363-0.014-0.786 0-1.272 0.044v0c-0.505 0.045-1.034 0.116-1.587 0.213-0.553 0.103-1.101 0.223-1.645 0.358-0.543 0.136-1.05 0.275-1.518 0.418-0.469 0.142-0.869 0.275-1.199 0.399v0c-0.319-0.426-0.702-0.844-1.147-1.253-0.445-0.409-0.916-0.775-1.414-1.098-0.491-0.324-0.996-0.577-1.514-0.758-0.512-0.182-0.994-0.262-1.447-0.241zM63.912 32.583v0c0.035 0.392 0.149 0.73 0.342 1.014 0.186 0.284 0.414 0.515 0.685 0.691 0.271 0.183 0.564 0.314 0.879 0.393 0.322 0.078 0.628 0.104 0.92 0.078v0c0.531-0.048 1.069-0.203 1.615-0.466 0.539-0.263 1.023-0.644 1.454-1.144 0.423-0.506 0.764-1.146 1.022-1.919 0.258-0.78 0.372-1.707 0.343-2.782v0c-1.391 0.158-2.562 0.357-3.511 0.596-0.955 0.246-1.719 0.536-2.291 0.868-0.572 0.339-0.969 0.729-1.191 1.171-0.227 0.449-0.316 0.949-0.267 1.5z" fill="white"></path><path d="M88.137 38.827v0c0.123-0.423 0.202-0.928 0.235-1.516 0.04-0.588 0.053-1.168 0.039-1.741v0c-0.012-0.52-0.058-1.039-0.137-1.557-0.079-0.518-0.174-1.03-0.286-1.534v0c0.913-0.021 1.665-0.079 2.257-0.173 0.591-0.094 1.064-0.248 1.419-0.463 0.355-0.208 0.598-0.501 0.73-0.878 0.124-0.383 0.18-0.864 0.166-1.444v0l-0.159-6.788c-0.03-0.699-0.133-1.254-0.309-1.663-0.17-0.416-0.401-0.731-0.693-0.944-0.285-0.213-0.638-0.352-1.06-0.416-0.415-0.064-0.882-0.089-1.402-0.077v0l-0.76 0.018c0.126-0.323 0.229-0.776 0.309-1.358 0.086-0.582 0.122-1.19 0.107-1.823v0c-0.015-0.62-0.072-1.209-0.172-1.766-0.106-0.558-0.237-1.008-0.391-1.351v0c0.609 0.072 1.35 0.122 2.224 0.148 0.881 0.026 1.811 0.028 2.79 0.004v0c0.713-0.017 1.433-0.05 2.159-0.1 0.719-0.044 1.421-0.11 2.106-0.2 0.685-0.089 1.326-0.201 1.922-0.335 0.597-0.127 1.13-0.287 1.599-0.478v0c-0.106 0.329-0.175 0.661-0.206 0.995-0.032 0.334-0.044 0.675-0.036 1.021v0c0.011 0.473 0.055 0.936 0.132 1.388 0.071 0.452 0.151 0.897 0.242 1.334v0c0.714-0.243 1.3-0.577 1.757-1.001 0.45-0.431 0.813-0.883 1.088-1.356 0.275-0.48 0.484-0.962 0.626-1.445 0.142-0.483 0.259-0.906 0.351-1.269v0c0.21 0.128 0.532 0.238 0.968 0.328 0.436 0.096 0.934 0.175 1.496 0.235 0.562 0.06 1.159 0.103 1.793 0.128 0.641 0.032 1.261 0.04 1.861 0.026v0c0.54-0.013 1.086-0.042 1.639-0.088 0.552-0.046 1.071-0.112 1.555-0.197 0.485-0.085 0.923-0.185 1.314-0.301 0.384-0.116 0.674-0.249 0.871-0.4v0c0.552 1.374 1.233 2.532 2.042 3.473 0.816 0.941 1.884 1.59 3.206 1.945v0c-0.252 0.333-0.471 0.688-0.655 1.066-0.185 0.378-0.341 0.808-0.47 1.291-0.129 0.49-0.219 1.042-0.271 1.657-0.045 0.621-0.059 1.338-0.04 2.151v0l0.129 5.499c0.014 0.58 0.108 1.058 0.284 1.434 0.182 0.369 0.449 0.65 0.8 0.841 0.358 0.198 0.818 0.331 1.38 0.398 0.562 0.067 1.236 0.091 2.022 0.072v0c-0.049 0.195-0.094 0.399-0.136 0.614-0.042 0.214-0.076 0.455-0.103 0.722-0.027 0.274-0.05 0.585-0.068 0.932-0.018 0.354-0.022 0.764-0.011 1.231v0c0.011 0.473 0.053 0.986 0.126 1.537 0.073 0.552 0.187 0.989 0.341 1.313v0c-0.508-0.068-1.11-0.131-1.805-0.188-0.695-0.057-1.436-0.106-2.224-0.148-0.794-0.035-1.618-0.059-2.472-0.072-0.854-0.013-1.694-0.01-2.521 0.009v0c-0.673 0.016-1.363 0.045-2.068 0.089-0.706 0.037-1.392 0.093-2.057 0.168-0.665 0.069-1.287 0.147-1.865 0.234-0.571 0.087-1.053 0.185-1.443 0.294v0c0.042-0.194 0.08-0.422 0.114-0.683 0.034-0.261 0.06-0.548 0.079-0.862 0.019-0.307 0.032-0.624 0.038-0.951 0.012-0.327 0.015-0.637 0.008-0.931v0c-0.004-0.16-0.019-0.38-0.045-0.659-0.02-0.273-0.046-0.552-0.08-0.838-0.033-0.286-0.073-0.558-0.119-0.818-0.046-0.259-0.094-0.461-0.144-0.607v0c0.553-0.013 1.012-0.05 1.377-0.112 0.365-0.069 0.659-0.202 0.881-0.401 0.222-0.205 0.378-0.499 0.47-0.881 0.084-0.382 0.119-0.89 0.104-1.523v0l-0.119-5.078c-0.015-0.64-0.092-1.242-0.233-1.805-0.147-0.563-0.358-1.059-0.635-1.486-0.277-0.427-0.631-0.762-1.064-1.005-0.426-0.243-0.939-0.358-1.538-0.344v0c-0.413 0.01-0.955 0.092-1.625 0.248-0.67 0.156-1.331 0.408-1.982 0.757-0.652 0.349-1.211 0.809-1.679 1.379-0.467 0.578-0.69 1.28-0.67 2.107v0l-0.02 0 0.148 5.448c0.025 1.053 0.369 1.785 1.031 2.197 0.656 0.405 1.571 0.593 2.744 0.565v0c-0.092 0.342-0.159 0.767-0.2 1.275-0.048 0.508-0.066 1.045-0.052 1.612v0c0.015 0.62 0.056 1.242 0.124 1.868 0.061 0.625 0.154 1.157 0.277 1.594v0c-1.043-0.136-2.283-0.25-3.719-0.343-1.436-0.086-3.187-0.105-5.252-0.057v0c-0.78 0.018-1.579 0.05-2.399 0.096-0.826 0.039-1.615 0.098-2.366 0.176-0.759 0.071-1.46 0.151-2.105 0.239-0.651 0.089-1.189 0.188-1.614 0.298z" fill="white"></path><path d="M128.423 32.998v0c0.221-0.41 0.486-1.261 0.797-2.553 0.317-1.286 0.533-3.084 0.648-5.395v0c0.113-2.291 0.076-4.091-0.113-5.402-0.182-1.317-0.362-2.191-0.542-2.62v0c0.902-0.022 1.798-0.175 2.686-0.458 0.895-0.283 1.734-0.645 2.517-1.087 0.776-0.442 1.465-0.935 2.066-1.479 0.595-0.551 1.046-1.113 1.355-1.685v0c0.346 0.297 0.911 0.539 1.696 0.724 0.792 0.186 1.65 0.302 2.576 0.348v0c0.539 0.027 1.07 0.026 1.592-0.001 0.522-0.021 1.004-0.06 1.448-0.119 0.444-0.065 0.838-0.135 1.182-0.212 0.345-0.083 0.609-0.177 0.795-0.281v0c0.323 0.75 0.752 1.402 1.284 1.956 0.533 0.56 1.182 1.006 1.947 1.338v0l0.311-6.292c0.021-0.7-0.088-1.266-0.326-1.698-0.239-0.426-0.56-0.759-0.962-0.999-0.409-0.24-0.877-0.411-1.407-0.51-0.536-0.1-1.087-0.164-1.652-0.192v0l-0.779-0.039c0.143-0.32 0.278-0.764 0.406-1.331 0.122-0.575 0.199-1.178 0.23-1.811v0c0.031-0.619 0.017-1.221-0.041-1.804-0.058-0.577-0.152-1.042-0.281-1.396v0c0.304 0.068 0.688 0.131 1.152 0.187 0.458 0.056 0.973 0.108 1.544 0.157 0.565 0.055 1.176 0.105 1.835 0.151 0.658 0.053 1.327 0.096 2.006 0.129v0c0.932 0.046 1.869 0.076 2.809 0.089 0.947 0.014 1.849 0.008 2.704-0.016 0.856-0.024 1.639-0.076 2.351-0.154 0.718-0.078 1.308-0.196 1.769-0.353v0c-0.371 0.622-0.693 1.317-0.964 2.085-0.265 0.768-0.486 1.588-0.662 2.46-0.183 0.872-0.332 1.786-0.447 2.741-0.114 0.956-0.196 1.929-0.244 2.922v0l-0.242 4.874c-0.05 1.005-0.067 1.896-0.052 2.67 0.008 0.775 0.062 1.435 0.162 1.981 0.106 0.546 0.265 0.984 0.476 1.315 0.21 0.337 0.492 0.572 0.846 0.703v0l-0.02-0.001c-0.297 0.072-0.57 0.255-0.818 0.55-0.242 0.295-0.446 0.659-0.615 1.091-0.168 0.432-0.303 0.919-0.402 1.462-0.1 0.542-0.164 1.09-0.192 1.642v0l-0.147 2.977c-0.066 1.332 0.163 2.301 0.687 2.907 0.524 0.6 1.243 0.923 2.155 0.968v0c-0.098 0.356-0.18 0.809-0.248 1.359-0.067 0.551-0.116 1.126-0.145 1.725v0c-0.03 0.606-0.043 1.213-0.04 1.821 0.003 0.614 0.043 1.093 0.119 1.437v0c-0.222-0.091-0.518-0.183-0.888-0.274-0.369-0.092-0.769-0.178-1.199-0.26-0.43-0.075-0.867-0.14-1.312-0.195-0.444-0.055-0.863-0.093-1.256-0.112v0c-0.926-0.046-1.738-0.023-2.436 0.07-0.692 0.099-1.302 0.209-1.828 0.33v0c-0.021-0.655-0.187-1.348-0.498-2.078-0.317-0.737-0.728-1.401-1.233-1.993v0c-0.406 0.24-0.791 0.532-1.155 0.874-0.371 0.342-0.699 0.696-0.984 1.063-0.292 0.366-0.54 0.738-0.746 1.114-0.205 0.37-0.345 0.707-0.42 1.011v0c-0.482-0.251-1.194-0.483-2.138-0.697-0.937-0.22-2.015-0.36-3.234-0.42v0c-1.192-0.059-2.272-0.026-3.238 0.1-0.967 0.119-1.683 0.28-2.147 0.484v0c-0.252-0.58-0.645-1.193-1.18-1.841-0.542-0.648-1.173-1.253-1.893-1.815-0.72-0.563-1.513-1.049-2.381-1.46-0.867-0.41-1.749-0.671-2.644-0.782zM140.014 25.582v0c-0.062 1.252-0.029 2.328 0.1 3.229 0.122 0.9 0.366 1.65 0.73 2.249 0.364 0.599 0.846 1.05 1.445 1.353 0.605 0.31 1.354 0.488 2.246 0.532v0c0.946 0.047 1.727-0.095 2.344-0.425 0.624-0.33 1.121-0.802 1.492-1.418 0.371-0.616 0.645-1.356 0.821-2.222 0.17-0.866 0.28-1.808 0.33-2.827v0c0.051-1.025 0.034-1.967-0.05-2.826-0.091-0.866-0.29-1.62-0.599-2.262-0.309-0.643-0.757-1.152-1.346-1.529-0.582-0.383-1.345-0.597-2.291-0.644v0c-0.892-0.044-1.655 0.052-2.287 0.288-0.625 0.229-1.149 0.617-1.57 1.163-0.421 0.553-0.737 1.268-0.947 2.146-0.217 0.877-0.356 1.941-0.418 3.193z" fill="white"></path><path d="M165.072 36.317v0c0.369-0.354 0.683-0.868 0.941-1.543 0.258-0.675 0.477-1.415 0.657-2.219 0.186-0.804 0.336-1.619 0.45-2.445 0.121-0.825 0.218-1.552 0.29-2.181v0c0.076-0.662 0.139-1.417 0.189-2.263 0.043-0.847 0.058-1.678 0.043-2.492-0.015-0.807-0.068-1.544-0.16-2.212-0.098-0.669-0.249-1.163-0.454-1.481v0c0.709 0.081 1.511-0.012 2.407-0.279 0.903-0.266 1.769-0.623 2.599-1.071 0.83-0.455 1.562-0.959 2.196-1.511 0.64-0.551 1.063-1.076 1.267-1.576v0c0.853 0.406 1.878 0.745 3.074 1.016 1.197 0.271 2.693 0.509 4.488 0.715v0c1.265 0.145 2.317 0.191 3.155 0.139 0.845-0.051 1.541-0.186 2.089-0.405v0c0.206 0.601 0.605 1.163 1.196 1.687 0.584 0.523 1.235 0.99 1.954 1.401 0.711 0.41 1.434 0.751 2.168 1.023 0.727 0.271 1.335 0.445 1.822 0.521v0c-0.164 0.256-0.317 0.541-0.46 0.853-0.143 0.312-0.276 0.683-0.399 1.112-0.123 0.429-0.238 0.936-0.345 1.52-0.107 0.585-0.206 1.272-0.296 2.06v0c-0.063 0.55-0.111 1.088-0.144 1.614-0.039 0.519-0.057 1-0.054 1.443-0.004 0.442 0.005 0.833 0.027 1.171 0.015 0.337 0.047 0.589 0.095 0.756v0c-0.4-0.079-0.94-0.168-1.621-0.266-0.673-0.104-1.411-0.215-2.216-0.334-0.806-0.112-1.648-0.225-2.528-0.34-0.88-0.107-1.718-0.207-2.512-0.297v0c-0.941-0.108-1.875-0.211-2.803-0.311-0.929-0.093-1.887-0.196-2.874-0.308v0c-0.828-0.095-1.492-0.1-1.991-0.017-0.5 0.09-0.891 0.247-1.171 0.47-0.28 0.223-0.478 0.509-0.591 0.859-0.114 0.349-0.195 0.733-0.243 1.15v0c-0.072 0.629 0.015 1.22 0.261 1.771 0.251 0.559 0.622 1.047 1.11 1.465 0.495 0.426 1.095 0.783 1.8 1.072 0.706 0.282 1.469 0.47 2.291 0.564v0c0.682 0.078 1.237 0.041 1.664-0.112 0.428-0.159 0.77-0.395 1.027-0.708 0.257-0.313 0.441-0.691 0.552-1.134 0.119-0.449 0.207-0.932 0.267-1.449v0c0.184 0.088 0.469 0.178 0.855 0.269 0.385 0.091 0.802 0.176 1.249 0.253 0.447 0.078 0.902 0.15 1.364 0.217 0.461 0.073 0.861 0.129 1.199 0.167v0c0.338 0.039 0.726 0.073 1.166 0.103 0.439 0.037 0.875 0.067 1.308 0.089 0.427 0.022 0.832 0.031 1.215 0.029 0.376-0.004 0.681-0.026 0.913-0.067v0c-0.054 0.175-0.117 0.409-0.191 0.703-0.074 0.294-0.143 0.608-0.208 0.942-0.066 0.341-0.125 0.68-0.177 1.017-0.052 0.336-0.091 0.617-0.117 0.842v0c-0.091 0.795-0.137 1.434-0.138 1.917 0.005 0.484 0.049 0.918 0.132 1.303v0l-0.437-0.05c-0.662-0.076-1.348-0.09-2.058-0.044-0.709 0.04-1.4 0.122-2.071 0.246-0.666 0.132-1.3 0.304-1.901 0.517-0.594 0.207-1.111 0.44-1.55 0.699v0c-0.209-0.171-0.506-0.33-0.892-0.475-0.385-0.151-0.812-0.291-1.281-0.418-0.469-0.127-0.963-0.238-1.482-0.33-0.526-0.094-1.031-0.168-1.514-0.224v0c-0.583-0.067-1.192-0.113-1.826-0.138-0.635-0.019-1.246-0.018-1.832 0.001-0.586 0.02-1.117 0.053-1.592 0.1-0.482 0.046-0.857 0.1-1.126 0.163v0c-0.098-0.434-0.423-0.937-0.974-1.51-0.546-0.566-1.202-1.11-1.967-1.634-0.759-0.523-1.572-0.982-2.44-1.377-0.874-0.395-1.682-0.635-2.424-0.72v0c-0.086-0.01-0.159-0.015-0.219-0.015-0.068 0.006-0.135 0.005-0.201-0.003zM176.169 25.005l6.458 0.739c0.642 0.073 1.159 0.106 1.549 0.097 0.383-0.003 0.685-0.066 0.907-0.188 0.215-0.123 0.367-0.307 0.456-0.552 0.082-0.246 0.147-0.577 0.194-0.995v0c0.089-0.775-0.17-1.445-0.776-2.011-0.607-0.559-1.613-0.919-3.017-1.08v0c-0.874-0.1-1.634-0.113-2.28-0.039-0.653 0.073-1.211 0.264-1.676 0.573-0.471 0.308-0.853 0.738-1.144 1.288-0.292 0.557-0.515 1.28-0.671 2.168z" fill="white"></path><path d="M196.936 44.332v0c0.198-0.391 0.371-0.872 0.519-1.442 0.155-0.568 0.283-1.135 0.383-1.699v0c0.091-0.512 0.149-1.03 0.175-1.553 0.025-0.524 0.036-1.043 0.032-1.559v0c0.893 0.158 1.638 0.25 2.237 0.275 0.605 0.026 1.099-0.032 1.483-0.173 0.389-0.134 0.686-0.373 0.889-0.716 0.198-0.351 0.347-0.812 0.448-1.383v0l1.187-6.685c0.109-0.692 0.121-1.255 0.036-1.69-0.091-0.443-0.258-0.797-0.502-1.064-0.237-0.266-0.556-0.471-0.957-0.617-0.394-0.144-0.847-0.262-1.359-0.353v0l-0.749-0.133c0.187-0.292 0.381-0.714 0.581-1.268 0.193-0.555 0.345-1.144 0.456-1.767v0c0.108-0.61 0.169-1.199 0.181-1.766 0.006-0.568-0.033-1.035-0.117-1.402v0c0.454 0.148 1.004 0.297 1.648 0.445 0.644 0.148 1.343 0.289 2.098 0.423v0c0.768 0.136 1.569 0.258 2.403 0.366 0.828 0.106 1.642 0.19 2.444 0.251 0.803 0.054 1.565 0.071 2.287 0.05 0.721-0.021 1.355-0.081 1.9-0.18v0c-0.169 0.302-0.302 0.613-0.399 0.934-0.098 0.321-0.178 0.659-0.241 1.014v0c-0.087 0.492-0.139 0.994-0.155 1.506-0.016 0.512-0.026 1.008-0.031 1.487v0c0.724-0.075 1.499-0.225 2.325-0.45 0.826-0.226 1.609-0.503 2.351-0.832 0.749-0.328 1.4-0.699 1.955-1.116 0.548-0.417 0.92-0.856 1.117-1.315v0c0.417 0.358 0.987 0.676 1.71 0.954 0.716 0.276 1.557 0.5 2.521 0.671v0c0.381 0.068 0.783 0.126 1.209 0.174 0.418 0.047 0.829 0.079 1.232 0.096 0.404 0.011 0.78-0.01 1.128-0.063 0.348-0.053 0.643-0.15 0.884-0.29v0c-0.188 0.298-0.361 0.681-0.518 1.147-0.157 0.466-0.305 0.975-0.443 1.526-0.137 0.544-0.263 1.101-0.378 1.669-0.12 0.561-0.224 1.091-0.313 1.59v0c-0.089 0.499-0.172 1.066-0.251 1.703-0.079 0.636-0.148 1.253-0.207 1.852-0.051 0.594-0.079 1.113-0.084 1.559-0.005 0.446 0.022 0.732 0.082 0.858v0c-0.508-0.226-1.152-0.452-1.932-0.678-0.771-0.232-1.59-0.424-2.456-0.579v0c-0.866-0.154-1.692-0.253-2.477-0.297-0.79-0.052-1.436-0.055-1.938-0.009v0c0.305-1.72 0.322-2.959 0.051-3.718-0.265-0.758-0.785-1.206-1.559-1.343v0c-0.381-0.068-0.82-0.034-1.318 0.101-0.491 0.136-0.971 0.379-1.44 0.73-0.467 0.344-0.899 0.792-1.295 1.344-0.395 0.546-0.684 1.202-0.867 1.969v0l-0.83 4.788c-0.101 0.571-0.021 1.073 0.241 1.506 0.263 0.426 0.666 0.788 1.208 1.088 0.542 0.306 1.206 0.569 1.993 0.79 0.787 0.221 1.653 0.415 2.598 0.583v0c-0.151 0.318-0.301 0.722-0.449 1.21-0.141 0.49-0.261 1.013-0.36 1.571v0c-0.108 0.61-0.194 1.228-0.258 1.854-0.064 0.625-0.078 1.164-0.043 1.617v0c-0.498-0.17-1.118-0.358-1.86-0.564-0.735-0.205-1.548-0.417-2.437-0.635-0.89-0.212-1.837-0.424-2.842-0.637-0.998-0.211-2.003-0.406-3.014-0.585v0c-0.768-0.136-1.633-0.276-2.597-0.421-0.955-0.149-1.904-0.277-2.846-0.383-0.935-0.112-1.806-0.202-2.613-0.271-0.807-0.069-1.426-0.091-1.857-0.065z" fill="white"></path></g></svg></g></svg></g><g transform="matrix(1,0,0,1,118.31980799999998,89.1288819067971)"><svg viewBox="0 0 158.88038400000002 28.001469573111176" height="28.001469573111176" width="158.88038400000002"><g transform="matrix(1,0,0,1,0,0)"><svg width="158.88038400000002" viewBox="1.32 -39.21 339.91 59.91" height="28.001469573111176" data-palette-color="url(#4c29d5af-1f5f-4810-a697-64ac7eceda06)"><path d="M25.29-17.82L25.29-17.82Q23.24-19.29 20.02-19.29L20.02-19.29Q16.99-19.29 14.4-18.16L14.4-18.16Q9.52-16.11 7.71-12.89L7.71-12.89Q6.93-11.43 6.93-9.77L6.93-9.77Q6.93-9.47 6.93-8.13 6.93-6.79 7.42-4.52 7.91-2.25 7.91 0.1L7.91 0.1Q6.88 0.15 6.25 0.34 5.62 0.54 5.18 0.54 4.74 0.54 4.42 0.15 4.1-0.24 3.71-1.37L3.71-1.37Q3.66-1.66 3.52-3.03 3.37-4.39 3.15-6.35 2.93-8.3 2.66-10.62 2.39-12.94 2.15-15.19L2.15-15.19Q1.61-20.07 1.32-22.36L1.32-22.36Q1.32-23.54 3.03-23.54L3.03-23.54Q4.05-23.54 4.64-22.68 5.22-21.83 5.57-20.73 5.91-19.63 6.03-18.55 6.15-17.48 6.25-17.04L6.25-17.04Q12.7-22.8 22.27-22.8L22.27-22.8Q23.34-22.8 24.51-22.75L24.51-22.75Q24.8-22.8 25.24-22.8 25.68-22.8 26.12-22.22L26.12-22.22Q26.66-21.53 26.66-20.56L26.66-20.56Q26.66-18.12 25.29-17.82ZM38.86-3.42L38.86-3.42Q43.16-3.42 51.8-7.32L51.8-7.32Q52.34-7.32 52.68-6.96 53.02-6.59 53.02-6.1L53.02-6.1Q51.07-2.78 45.55-0.93 40.04 0.93 35.25-0.29L35.25-0.29Q29.83-1.71 28.66-6.4L28.66-6.4Q28.56-7.32 28.56-8.89 28.56-10.45 29.37-13.01 30.17-15.58 32.13-17.87 34.08-20.17 36.72-21.48 39.35-22.8 42.33-22.8L42.33-22.8Q45.16-22.8 48.68-20.85L48.68-20.85Q50.34-19.92 51.32-18.75 52.29-17.58 52.29-16.36L52.29-16.36Q52.29-16.02 52.24-15.67L52.24-15.67Q52.15-12.7 49.36-11.91L49.36-11.91Q48.14-11.57 46.53-11.57L46.53-11.57 39.5-11.87Q35.98-11.87 34.13-10.35L34.13-10.35Q33.05-9.52 32.61-7.86L32.61-7.86Q33.84-3.42 38.86-3.42ZM47.58-18.51Q46.48-19.29 45.31-19.63 44.14-19.97 43.36-19.97 42.58-19.97 40.82-19.46 39.06-18.95 37.69-18.31L37.69-18.31Q34.32-16.75 34.32-15.04L34.32-15.04Q38.23-14.7 40.18-14.7L40.18-14.7Q45.6-14.7 47.51-15.63L47.51-15.63Q48.68-16.11 48.68-16.85L48.68-16.85Q48.68-17.72 47.58-18.51ZM75.14-8.11L75.14-8.11Q71.48-2.34 65.38-0.98L65.38-0.98Q63.96-0.68 62.81-0.68 61.66-0.68 60.91-0.71 60.15-0.73 59.22-0.93 58.3-1.12 57.51-1.56L57.51-1.56Q55.71-2.59 55.71-4.44L55.71-4.44Q55.51-5.32 55.51-6.42 55.51-7.52 56-9.33 56.49-11.13 57.78-13.23 59.08-15.33 60.93-17.09L60.93-17.09Q64.79-20.8 69.28-21.88L69.28-21.88Q70.6-22.17 71.7-22.17 72.8-22.17 73.68-22.02L73.68-22.02Q76.51-22.02 77.49-18.16L77.49-18.16Q78.12-15.72 78.24-11.35 78.36-6.98 78.49-4.61 78.61-2.25 79.1-0.29L79.1-0.29 76.22-0.29Q76.02-1.61 75.92-2.64 75.83-3.66 75.73-4.54L75.73-4.54Q75.48-6.59 75.14-8.11ZM74.95-15.67L74.95-15.67Q74.95-18.51 72.16-18.51L72.16-18.51Q71.82-18.55 71.48-18.55L71.48-18.55Q67.91-18.55 63.96-15.14L63.96-15.14Q62.1-13.57 60.79-11.62L60.79-11.62Q58.83-8.84 58.83-6.64L58.83-6.64Q58.83-3.76 62.15-3.22L62.15-3.22Q66.55-3.32 70.55-7.23L70.55-7.23Q72.26-8.94 73.38-10.94L73.38-10.94Q74.95-13.62 74.95-15.67ZM104.48-39.21Q104.48-34.52 104.22-30.05 103.95-25.59 103.73-21.31 103.51-17.04 103.51-12.23 103.51-7.42 104.19-2.05L104.19-2.05Q104.19-0.93 103.78-0.44 103.36 0.05 102.39 0.05L102.39 0.05Q100.09 0.05 100.09-3.76L100.09-3.76 100.09-5.37Q93.16-0.2 88.37-0.2L88.37-0.2Q86.47-0.2 84.49-1.12 82.51-2.05 80.75-4.88L80.75-4.88Q80.51-6.05 80.51-7.28 80.51-8.5 80.97-10.23 81.44-11.96 82.88-13.82 84.32-15.67 86.37-17.09L86.37-17.09Q90.86-20.12 96.09-20.12L96.09-20.12Q98.33-20.12 100.38-19.43L100.38-19.43Q100.38-20.31 100.51-22.51 100.63-24.71 100.77-27.15L100.77-27.15Q101.07-33.5 101.16-34.64 101.26-35.79 101.43-36.6 101.6-37.4 101.95-37.99L101.95-37.99Q102.68-39.21 104.48-39.21L104.48-39.21ZM84.07-7.67L84.07-7.67Q84.07-3.81 86.86-3.81L86.86-3.81Q87.3-3.81 87.83-3.91L87.83-3.91Q89.84-3.91 92.77-5.08L92.77-5.08Q98.33-7.28 99.55-8.89L99.55-8.89 99.55-15.38Q99.55-17.09 96.77-17.09L96.77-17.09Q96.43-17.14 95.87-17.14 95.31-17.14 94.13-16.89 92.96-16.65 91.5-16.02 90.03-15.38 88.62-14.45L88.62-14.45Q85.64-12.45 84.51-9.77L84.51-9.77Q84.07-8.74 84.07-7.67ZM132.17-21.19L117.32 18.41Q116.3 20.7 114.88 20.7L114.88 20.7Q114.2 20.7 113.88 20.09 113.56 19.48 113.86 18.65L113.86 18.65Q114.93 14.11 116.96 8.3 118.98 2.49 119.67 0.49L119.67 0.49Q117.96-1.22 114.3-6.35L114.3-6.35Q106.78-16.89 106.78-17.92L106.78-17.92Q106.78-17.97 106.83-18.02L106.83-18.02 108.68-19.87Q112.54-16.31 118.74-7.76L118.74-7.76Q120.3-5.62 121.23-4.15L121.23-4.15Q122.26-6.2 122.84-7.69 123.43-9.18 123.79-10.08 124.16-10.99 124.79-12.5L124.79-12.5Q126.45-16.55 129.38-22.8L129.38-22.8Q129.82-23 130.31-23L130.31-23Q131.53-23 132.07-22.36L132.07-22.36Q132.27-22.12 132.27-21.8 132.27-21.48 132.17-21.19L132.17-21.19ZM161.85-4.69L161.85-4.69 161.95-12.5Q161.95-14.36 161.61-15.67L161.61-15.67 154.04-15.67 153.94-19.04 161.26-19.04 161.26-31.64Q161.41-32.08 161.85-32.52L161.85-32.52Q162.53-33.2 163-33.2 163.46-33.2 163.8-33.11 164.15-33.01 164.54-32.42L164.54-32.42Q165.32-29.2 165.32-22.71L165.32-22.71Q165.32-21.09 165.46-19.53L165.46-19.53Q167.03-19.73 168.59-19.73L168.59-19.73Q168.59-19.73 171.13-19.73L171.13-19.73Q172.06-19.73 172.84-19.82L172.84-19.82 172.69-16.31 165.56-16.5 165.81 0.34Q164.93 0.73 164.29 0.73L164.29 0.73Q161.85 0.73 161.85-4.69ZM175.91-9.28L175.91-9.28Q175.91-15.04 180.89-18.55L180.89-18.55Q184.85-21.34 190.41-21.92L190.41-21.92Q190.71-21.92 191.78-21.92 192.85-21.92 194.66-21.29L194.66-21.29Q198.66-19.92 200.13-16.46L200.13-16.46Q200.71-15.09 200.71-14.14 200.71-13.18 200.67-12.79L200.67-12.79Q200.67-6.69 196.03-3.17L196.03-3.17Q191.73 0.05 185.29 0.05L185.29 0.05Q180.65 0.05 178.28-2.1 175.91-4.25 175.91-9.28ZM179.28-8.11L179.28-8.11Q179.28-5.08 180.89-4L180.89-4Q182.11-3.22 184.99-3.22 187.87-3.22 190.07-3.66 192.27-4.1 193.98-5.18L193.98-5.18Q197.64-7.52 197.64-12.45L197.64-12.45Q197.64-15.38 196.08-17.24L196.08-17.24Q194.37-19.24 191.58-19.24L191.58-19.24Q189.68-18.9 187.75-18.51 185.82-18.12 184.11-16.99L184.11-16.99Q180.4-14.6 179.28-8.11ZM246.8-17.82L246.8-17.82Q244.75-19.29 241.53-19.29L241.53-19.29Q238.5-19.29 235.92-18.16L235.92-18.16Q231.03-16.11 229.23-12.89L229.23-12.89Q228.44-11.43 228.44-9.77L228.44-9.77Q228.44-9.47 228.44-8.13 228.44-6.79 228.93-4.52 229.42-2.25 229.42 0.1L229.42 0.1Q228.4 0.15 227.76 0.34 227.13 0.54 226.69 0.54 226.25 0.54 225.93 0.15 225.61-0.24 225.22-1.37L225.22-1.37Q225.17-1.66 225.03-3.03 224.88-4.39 224.66-6.35 224.44-8.3 224.17-10.62 223.9-12.94 223.66-15.19L223.66-15.19Q223.12-20.07 222.83-22.36L222.83-22.36Q222.83-23.54 224.54-23.54L224.54-23.54Q225.56-23.54 226.15-22.68 226.74-21.83 227.08-20.73 227.42-19.63 227.54-18.55 227.66-17.48 227.76-17.04L227.76-17.04Q234.21-22.8 243.78-22.8L243.78-22.8Q244.85-22.8 246.02-22.75L246.02-22.75Q246.32-22.8 246.75-22.8 247.19-22.8 247.63-22.22L247.63-22.22Q248.17-21.53 248.17-20.56L248.17-20.56Q248.17-18.12 246.8-17.82ZM251.64-9.28L251.64-9.28Q251.64-15.04 256.62-18.55L256.62-18.55Q260.57-21.34 266.14-21.92L266.14-21.92Q266.43-21.92 267.5-21.92 268.58-21.92 270.39-21.29L270.39-21.29Q274.39-19.92 275.85-16.46L275.85-16.46Q276.44-15.09 276.44-14.14 276.44-13.18 276.39-12.79L276.39-12.79Q276.39-6.69 271.75-3.17L271.75-3.17Q267.46 0.05 261.01 0.05L261.01 0.05Q256.37 0.05 254-2.1 251.64-4.25 251.64-9.28ZM255-8.11L255-8.11Q255-5.08 256.62-4L256.62-4Q257.84-3.22 260.72-3.22 263.6-3.22 265.8-3.66 267.99-4.1 269.7-5.18L269.7-5.18Q273.36-7.52 273.36-12.45L273.36-12.45Q273.36-15.38 271.8-17.24L271.8-17.24Q270.09-19.24 267.31-19.24L267.31-19.24Q265.4-18.9 263.48-18.51 261.55-18.12 259.84-16.99L259.84-16.99Q256.13-14.6 255-8.11ZM297.73-8.11L297.73-8.11Q294.06-2.34 287.96-0.98L287.96-0.98Q286.54-0.68 285.4-0.68 284.25-0.68 283.49-0.71 282.74-0.73 281.81-0.93 280.88-1.12 280.1-1.56L280.1-1.56Q278.29-2.59 278.29-4.44L278.29-4.44Q278.1-5.32 278.1-6.42 278.1-7.52 278.59-9.33 279.07-11.13 280.37-13.23 281.66-15.33 283.52-17.09L283.52-17.09Q287.37-20.8 291.87-21.88L291.87-21.88Q293.19-22.17 294.28-22.17 295.38-22.17 296.26-22.02L296.26-22.02Q299.09-22.02 300.07-18.16L300.07-18.16Q300.7-15.72 300.83-11.35 300.95-6.98 301.07-4.61 301.19-2.25 301.68-0.29L301.68-0.29 298.8-0.29Q298.61-1.61 298.51-2.64 298.41-3.66 298.31-4.54L298.31-4.54Q298.07-6.59 297.73-8.11ZM297.53-15.67L297.53-15.67Q297.53-18.51 294.75-18.51L294.75-18.51Q294.41-18.55 294.06-18.55L294.06-18.55Q290.5-18.55 286.54-15.14L286.54-15.14Q284.69-13.57 283.37-11.62L283.37-11.62Q281.42-8.84 281.42-6.64L281.42-6.64Q281.42-3.76 284.74-3.22L284.74-3.22Q289.13-3.32 293.14-7.23L293.14-7.23Q294.85-8.94 295.97-10.94L295.97-10.94Q297.53-13.62 297.53-15.67ZM308.03-0.78L308.03-0.78Q306.02 0.05 305.37 0.05 304.71 0.05 304.46-0.1 304.22-0.24 303.93-0.78L303.93-0.78Q303.93-2.39 304.05-4.83 304.17-7.28 304.27-10.06 304.36-12.84 304.36-15.67 304.36-18.51 304.07-20.85L304.07-20.85Q304.07-22.41 306.17-22.41L306.17-22.41Q306.66-22.41 306.93-20.65 307.2-18.9 307.32-17.92 307.44-16.94 307.54-16.5L307.54-16.5Q308.81-18.8 312.57-20.12L312.57-20.12Q314.57-20.75 316.33-20.75 318.09-20.75 319.43-20.34 320.77-19.92 321.72-18.82 322.68-17.72 322.68-15.92L322.68-15.92Q323.94-18.31 328.39-20.21L328.39-20.21Q332.44-22.02 335.66-22.02L335.66-22.02Q340.3-22.02 340.2-18.51L340.2-18.51 341.23-0.34Q341.23-0.1 339.81 0L339.81 0Q337.08 0.2 337.08-0.49L337.08-0.49Q337.03-1.46 337.03-2.44L337.03-2.44 337.27-10.3Q337.27-15.82 336.2-19.04L336.2-19.04Q332.98-18.8 331.24-17.99 329.51-17.19 328.19-15.99 326.87-14.79 325.85-12.79L325.85-12.79Q323.55-8.3 323.55-0.88L323.55-0.88Q323.26 0.15 321.65 0.15L321.65 0.15Q320.58 0.15 319.89-0.22 319.21-0.59 319.35-0.88L319.35-0.88Q320.28-6.05 320.28-8.94L320.28-8.94Q320.28-11.23 319.82-13.31 319.35-15.38 318.67-18.07L318.67-18.07Q311.64-18.07 309.2-12.45L309.2-12.45Q308.12-9.96 308-7.79 307.88-5.62 307.88-4.08 307.88-2.54 308.03-0.78Z" opacity="1" transform="matrix(1,0,0,1,0,0)" fill="black" class="slogan-text-1" id="SvgjsPath1733"></path></svg></g></svg></g></svg></g></svg></g><g></g></svg></g><defs><mask></mask></defs></svg><rect width="395.52" height="117.13035147990828" fill="black" stroke="none" visibility="hidden"></rect></g></mask><linearGradient x1="0.054" x2="0.941" y1="0.5" y2="0.5" id="c134b80f-45af-4527-a06f-c0aae55b8c3b"><stop stop-color="#0f3054" offset="0"></stop><stop stop-color="#3b8dcb" offset="0.498"></stop><stop stop-color="#0f3054" offset="1"></stop></linearGradient><rect width="395.52" height="117.13035147990828" fill="url(#c134b80f-45af-4527-a06f-c0aae55b8c3b)" mask="url(#74f9d3e3-07a7-415f-a85d-c4b6b637ec11)" data-fill-palette-color="primary"></rect><mask id="d484131b-e65e-420c-8447-2e8969687f9e"><g id="SvgjsG1747"><svg viewBox="0 0 395.52 117.13035147990828" height="117.13035147990828" width="395.52"><g><svg viewBox="0 0 395.52 117.13035147990828" height="117.13035147990828" width="395.52"><g><svg viewBox="0 0 395.52 117.13035147990828" height="117.13035147990828" width="395.52"><g id="SvgjsG1746"><svg viewBox="0 0 395.52 117.13035147990828" height="117.13035147990828" width="395.52" id="SvgjsSvg1745"><g><svg viewBox="0 0 395.52 82.27186667961362" height="82.27186667961362" width="395.52"><g transform="matrix(1,0,0,1,0,0)"><svg width="395.52" viewBox="-0.000010000000000287557 -3.1086244689504383e-15 230.24551 47.893240000000006" height="82.27186667961362" data-palette-color="url(#c134b80f-45af-4527-a06f-c0aae55b8c3b)"><g class="wordmark-text-0" data-fill-palette-color="primary" id="SvgjsG1744"></g></svg></g></svg></g><g transform="matrix(1,0,0,1,118.31980799999998,89.1288819067971)"><svg viewBox="0 0 158.88038400000002 28.001469573111176" height="28.001469573111176" width="158.88038400000002"><g transform="matrix(1,0,0,1,0,0)"><svg width="158.88038400000002" viewBox="1.32 -39.21 339.91 59.91" height="28.001469573111176" data-palette-color="url(#4c29d5af-1f5f-4810-a697-64ac7eceda06)"><path d="M25.29-17.82L25.29-17.82Q23.24-19.29 20.02-19.29L20.02-19.29Q16.99-19.29 14.4-18.16L14.4-18.16Q9.52-16.11 7.71-12.89L7.71-12.89Q6.93-11.43 6.93-9.77L6.93-9.77Q6.93-9.47 6.93-8.13 6.93-6.79 7.42-4.52 7.91-2.25 7.91 0.1L7.91 0.1Q6.88 0.15 6.25 0.34 5.62 0.54 5.18 0.54 4.74 0.54 4.42 0.15 4.1-0.24 3.71-1.37L3.71-1.37Q3.66-1.66 3.52-3.03 3.37-4.39 3.15-6.35 2.93-8.3 2.66-10.62 2.39-12.94 2.15-15.19L2.15-15.19Q1.61-20.07 1.32-22.36L1.32-22.36Q1.32-23.54 3.03-23.54L3.03-23.54Q4.05-23.54 4.64-22.68 5.22-21.83 5.57-20.73 5.91-19.63 6.03-18.55 6.15-17.48 6.25-17.04L6.25-17.04Q12.7-22.8 22.27-22.8L22.27-22.8Q23.34-22.8 24.51-22.75L24.51-22.75Q24.8-22.8 25.24-22.8 25.68-22.8 26.12-22.22L26.12-22.22Q26.66-21.53 26.66-20.56L26.66-20.56Q26.66-18.12 25.29-17.82ZM38.86-3.42L38.86-3.42Q43.16-3.42 51.8-7.32L51.8-7.32Q52.34-7.32 52.68-6.96 53.02-6.59 53.02-6.1L53.02-6.1Q51.07-2.78 45.55-0.93 40.04 0.93 35.25-0.29L35.25-0.29Q29.83-1.71 28.66-6.4L28.66-6.4Q28.56-7.32 28.56-8.89 28.56-10.45 29.37-13.01 30.17-15.58 32.13-17.87 34.08-20.17 36.72-21.48 39.35-22.8 42.33-22.8L42.33-22.8Q45.16-22.8 48.68-20.85L48.68-20.85Q50.34-19.92 51.32-18.75 52.29-17.58 52.29-16.36L52.29-16.36Q52.29-16.02 52.24-15.67L52.24-15.67Q52.15-12.7 49.36-11.91L49.36-11.91Q48.14-11.57 46.53-11.57L46.53-11.57 39.5-11.87Q35.98-11.87 34.13-10.35L34.13-10.35Q33.05-9.52 32.61-7.86L32.61-7.86Q33.84-3.42 38.86-3.42ZM47.58-18.51Q46.48-19.29 45.31-19.63 44.14-19.97 43.36-19.97 42.58-19.97 40.82-19.46 39.06-18.95 37.69-18.31L37.69-18.31Q34.32-16.75 34.32-15.04L34.32-15.04Q38.23-14.7 40.18-14.7L40.18-14.7Q45.6-14.7 47.51-15.63L47.51-15.63Q48.68-16.11 48.68-16.85L48.68-16.85Q48.68-17.72 47.58-18.51ZM75.14-8.11L75.14-8.11Q71.48-2.34 65.38-0.98L65.38-0.98Q63.96-0.68 62.81-0.68 61.66-0.68 60.91-0.71 60.15-0.73 59.22-0.93 58.3-1.12 57.51-1.56L57.51-1.56Q55.71-2.59 55.71-4.44L55.71-4.44Q55.51-5.32 55.51-6.42 55.51-7.52 56-9.33 56.49-11.13 57.78-13.23 59.08-15.33 60.93-17.09L60.93-17.09Q64.79-20.8 69.28-21.88L69.28-21.88Q70.6-22.17 71.7-22.17 72.8-22.17 73.68-22.02L73.68-22.02Q76.51-22.02 77.49-18.16L77.49-18.16Q78.12-15.72 78.24-11.35 78.36-6.98 78.49-4.61 78.61-2.25 79.1-0.29L79.1-0.29 76.22-0.29Q76.02-1.61 75.92-2.64 75.83-3.66 75.73-4.54L75.73-4.54Q75.48-6.59 75.14-8.11ZM74.95-15.67L74.95-15.67Q74.95-18.51 72.16-18.51L72.16-18.51Q71.82-18.55 71.48-18.55L71.48-18.55Q67.91-18.55 63.96-15.14L63.96-15.14Q62.1-13.57 60.79-11.62L60.79-11.62Q58.83-8.84 58.83-6.64L58.83-6.64Q58.83-3.76 62.15-3.22L62.15-3.22Q66.55-3.32 70.55-7.23L70.55-7.23Q72.26-8.94 73.38-10.94L73.38-10.94Q74.95-13.62 74.95-15.67ZM104.48-39.21Q104.48-34.52 104.22-30.05 103.95-25.59 103.73-21.31 103.51-17.04 103.51-12.23 103.51-7.42 104.19-2.05L104.19-2.05Q104.19-0.93 103.78-0.44 103.36 0.05 102.39 0.05L102.39 0.05Q100.09 0.05 100.09-3.76L100.09-3.76 100.09-5.37Q93.16-0.2 88.37-0.2L88.37-0.2Q86.47-0.2 84.49-1.12 82.51-2.05 80.75-4.88L80.75-4.88Q80.51-6.05 80.51-7.28 80.51-8.5 80.97-10.23 81.44-11.96 82.88-13.82 84.32-15.67 86.37-17.09L86.37-17.09Q90.86-20.12 96.09-20.12L96.09-20.12Q98.33-20.12 100.38-19.43L100.38-19.43Q100.38-20.31 100.51-22.51 100.63-24.71 100.77-27.15L100.77-27.15Q101.07-33.5 101.16-34.64 101.26-35.79 101.43-36.6 101.6-37.4 101.95-37.99L101.95-37.99Q102.68-39.21 104.48-39.21L104.48-39.21ZM84.07-7.67L84.07-7.67Q84.07-3.81 86.86-3.81L86.86-3.81Q87.3-3.81 87.83-3.91L87.83-3.91Q89.84-3.91 92.77-5.08L92.77-5.08Q98.33-7.28 99.55-8.89L99.55-8.89 99.55-15.38Q99.55-17.09 96.77-17.09L96.77-17.09Q96.43-17.14 95.87-17.14 95.31-17.14 94.13-16.89 92.96-16.65 91.5-16.02 90.03-15.38 88.62-14.45L88.62-14.45Q85.64-12.45 84.51-9.77L84.51-9.77Q84.07-8.74 84.07-7.67ZM132.17-21.19L117.32 18.41Q116.3 20.7 114.88 20.7L114.88 20.7Q114.2 20.7 113.88 20.09 113.56 19.48 113.86 18.65L113.86 18.65Q114.93 14.11 116.96 8.3 118.98 2.49 119.67 0.49L119.67 0.49Q117.96-1.22 114.3-6.35L114.3-6.35Q106.78-16.89 106.78-17.92L106.78-17.92Q106.78-17.97 106.83-18.02L106.83-18.02 108.68-19.87Q112.54-16.31 118.74-7.76L118.74-7.76Q120.3-5.62 121.23-4.15L121.23-4.15Q122.26-6.2 122.84-7.69 123.43-9.18 123.79-10.08 124.16-10.99 124.79-12.5L124.79-12.5Q126.45-16.55 129.38-22.8L129.38-22.8Q129.82-23 130.31-23L130.31-23Q131.53-23 132.07-22.36L132.07-22.36Q132.27-22.12 132.27-21.8 132.27-21.48 132.17-21.19L132.17-21.19ZM161.85-4.69L161.85-4.69 161.95-12.5Q161.95-14.36 161.61-15.67L161.61-15.67 154.04-15.67 153.94-19.04 161.26-19.04 161.26-31.64Q161.41-32.08 161.85-32.52L161.85-32.52Q162.53-33.2 163-33.2 163.46-33.2 163.8-33.11 164.15-33.01 164.54-32.42L164.54-32.42Q165.32-29.2 165.32-22.71L165.32-22.71Q165.32-21.09 165.46-19.53L165.46-19.53Q167.03-19.73 168.59-19.73L168.59-19.73Q168.59-19.73 171.13-19.73L171.13-19.73Q172.06-19.73 172.84-19.82L172.84-19.82 172.69-16.31 165.56-16.5 165.81 0.34Q164.93 0.73 164.29 0.73L164.29 0.73Q161.85 0.73 161.85-4.69ZM175.91-9.28L175.91-9.28Q175.91-15.04 180.89-18.55L180.89-18.55Q184.85-21.34 190.41-21.92L190.41-21.92Q190.71-21.92 191.78-21.92 192.85-21.92 194.66-21.29L194.66-21.29Q198.66-19.92 200.13-16.46L200.13-16.46Q200.71-15.09 200.71-14.14 200.71-13.18 200.67-12.79L200.67-12.79Q200.67-6.69 196.03-3.17L196.03-3.17Q191.73 0.05 185.29 0.05L185.29 0.05Q180.65 0.05 178.28-2.1 175.91-4.25 175.91-9.28ZM179.28-8.11L179.28-8.11Q179.28-5.08 180.89-4L180.89-4Q182.11-3.22 184.99-3.22 187.87-3.22 190.07-3.66 192.27-4.1 193.98-5.18L193.98-5.18Q197.64-7.52 197.64-12.45L197.64-12.45Q197.64-15.38 196.08-17.24L196.08-17.24Q194.37-19.24 191.58-19.24L191.58-19.24Q189.68-18.9 187.75-18.51 185.82-18.12 184.11-16.99L184.11-16.99Q180.4-14.6 179.28-8.11ZM246.8-17.82L246.8-17.82Q244.75-19.29 241.53-19.29L241.53-19.29Q238.5-19.29 235.92-18.16L235.92-18.16Q231.03-16.11 229.23-12.89L229.23-12.89Q228.44-11.43 228.44-9.77L228.44-9.77Q228.44-9.47 228.44-8.13 228.44-6.79 228.93-4.52 229.42-2.25 229.42 0.1L229.42 0.1Q228.4 0.15 227.76 0.34 227.13 0.54 226.69 0.54 226.25 0.54 225.93 0.15 225.61-0.24 225.22-1.37L225.22-1.37Q225.17-1.66 225.03-3.03 224.88-4.39 224.66-6.35 224.44-8.3 224.17-10.62 223.9-12.94 223.66-15.19L223.66-15.19Q223.12-20.07 222.83-22.36L222.83-22.36Q222.83-23.54 224.54-23.54L224.54-23.54Q225.56-23.54 226.15-22.68 226.74-21.83 227.08-20.73 227.42-19.63 227.54-18.55 227.66-17.48 227.76-17.04L227.76-17.04Q234.21-22.8 243.78-22.8L243.78-22.8Q244.85-22.8 246.02-22.75L246.02-22.75Q246.32-22.8 246.75-22.8 247.19-22.8 247.63-22.22L247.63-22.22Q248.17-21.53 248.17-20.56L248.17-20.56Q248.17-18.12 246.8-17.82ZM251.64-9.28L251.64-9.28Q251.64-15.04 256.62-18.55L256.62-18.55Q260.57-21.34 266.14-21.92L266.14-21.92Q266.43-21.92 267.5-21.92 268.58-21.92 270.39-21.29L270.39-21.29Q274.39-19.92 275.85-16.46L275.85-16.46Q276.44-15.09 276.44-14.14 276.44-13.18 276.39-12.79L276.39-12.79Q276.39-6.69 271.75-3.17L271.75-3.17Q267.46 0.05 261.01 0.05L261.01 0.05Q256.37 0.05 254-2.1 251.64-4.25 251.64-9.28ZM255-8.11L255-8.11Q255-5.08 256.62-4L256.62-4Q257.84-3.22 260.72-3.22 263.6-3.22 265.8-3.66 267.99-4.1 269.7-5.18L269.7-5.18Q273.36-7.52 273.36-12.45L273.36-12.45Q273.36-15.38 271.8-17.24L271.8-17.24Q270.09-19.24 267.31-19.24L267.31-19.24Q265.4-18.9 263.48-18.51 261.55-18.12 259.84-16.99L259.84-16.99Q256.13-14.6 255-8.11ZM297.73-8.11L297.73-8.11Q294.06-2.34 287.96-0.98L287.96-0.98Q286.54-0.68 285.4-0.68 284.25-0.68 283.49-0.71 282.74-0.73 281.81-0.93 280.88-1.12 280.1-1.56L280.1-1.56Q278.29-2.59 278.29-4.44L278.29-4.44Q278.1-5.32 278.1-6.42 278.1-7.52 278.59-9.33 279.07-11.13 280.37-13.23 281.66-15.33 283.52-17.09L283.52-17.09Q287.37-20.8 291.87-21.88L291.87-21.88Q293.19-22.17 294.28-22.17 295.38-22.17 296.26-22.02L296.26-22.02Q299.09-22.02 300.07-18.16L300.07-18.16Q300.7-15.72 300.83-11.35 300.95-6.98 301.07-4.61 301.19-2.25 301.68-0.29L301.68-0.29 298.8-0.29Q298.61-1.61 298.51-2.64 298.41-3.66 298.31-4.54L298.31-4.54Q298.07-6.59 297.73-8.11ZM297.53-15.67L297.53-15.67Q297.53-18.51 294.75-18.51L294.75-18.51Q294.41-18.55 294.06-18.55L294.06-18.55Q290.5-18.55 286.54-15.14L286.54-15.14Q284.69-13.57 283.37-11.62L283.37-11.62Q281.42-8.84 281.42-6.64L281.42-6.64Q281.42-3.76 284.74-3.22L284.74-3.22Q289.13-3.32 293.14-7.23L293.14-7.23Q294.85-8.94 295.97-10.94L295.97-10.94Q297.53-13.62 297.53-15.67ZM308.03-0.78L308.03-0.78Q306.02 0.05 305.37 0.05 304.71 0.05 304.46-0.1 304.22-0.24 303.93-0.78L303.93-0.78Q303.93-2.39 304.05-4.83 304.17-7.28 304.27-10.06 304.36-12.84 304.36-15.67 304.36-18.51 304.07-20.85L304.07-20.85Q304.07-22.41 306.17-22.41L306.17-22.41Q306.66-22.41 306.93-20.65 307.2-18.9 307.32-17.92 307.44-16.94 307.54-16.5L307.54-16.5Q308.81-18.8 312.57-20.12L312.57-20.12Q314.57-20.75 316.33-20.75 318.09-20.75 319.43-20.34 320.77-19.92 321.72-18.82 322.68-17.72 322.68-15.92L322.68-15.92Q323.94-18.31 328.39-20.21L328.39-20.21Q332.44-22.02 335.66-22.02L335.66-22.02Q340.3-22.02 340.2-18.51L340.2-18.51 341.23-0.34Q341.23-0.1 339.81 0L339.81 0Q337.08 0.2 337.08-0.49L337.08-0.49Q337.03-1.46 337.03-2.44L337.03-2.44 337.27-10.3Q337.27-15.82 336.2-19.04L336.2-19.04Q332.98-18.8 331.24-17.99 329.51-17.19 328.19-15.99 326.87-14.79 325.85-12.79L325.85-12.79Q323.55-8.3 323.55-0.88L323.55-0.88Q323.26 0.15 321.65 0.15L321.65 0.15Q320.58 0.15 319.89-0.22 319.21-0.59 319.35-0.88L319.35-0.88Q320.28-6.05 320.28-8.94L320.28-8.94Q320.28-11.23 319.82-13.31 319.35-15.38 318.67-18.07L318.67-18.07Q311.64-18.07 309.2-12.45L309.2-12.45Q308.12-9.96 308-7.79 307.88-5.62 307.88-4.08 307.88-2.54 308.03-0.78Z" opacity="1" transform="matrix(1,0,0,1,0,0)" fill="white" class="slogan-text-1" id="SvgjsPath1743"></path></svg></g></svg></g></svg></g></svg></g><g></g></svg></g><defs><mask></mask></defs><mask><g id="SvgjsG1742"><svg viewBox="0 0 395.52 117.13035147990828" height="117.13035147990828" width="395.52"><g><svg viewBox="0 0 395.52 117.13035147990828" height="117.13035147990828" width="395.52"><g><svg viewBox="0 0 395.52 117.13035147990828" height="117.13035147990828" width="395.52"><g id="SvgjsG1741"><svg viewBox="0 0 395.52 117.13035147990828" height="117.13035147990828" width="395.52" id="SvgjsSvg1740"><g><svg viewBox="0 0 395.52 82.27186667961362" height="82.27186667961362" width="395.52"><g transform="matrix(1,0,0,1,0,0)"><svg width="395.52" viewBox="-0.000010000000000287557 -3.1086244689504383e-15 230.24551 47.893240000000006" height="82.27186667961362" data-palette-color="url(#c134b80f-45af-4527-a06f-c0aae55b8c3b)"><g class="wordmark-text-0" data-fill-palette-color="primary" id="SvgjsG1739"><path d="M15.836 47.864v0c0.001-0.115-0.007-0.249-0.025-0.401-0.019-0.152-0.039-0.294-0.061-0.426v0c-0.115-0.691-0.347-1.5-0.697-2.429-0.351-0.935-0.886-1.921-1.605-2.957v0c-0.738-1.067-1.462-1.886-2.171-2.458-0.717-0.577-1.38-0.906-1.989-0.988v0c0.261-0.138 0.357-0.417 0.287-0.838v0c-0.035-0.21-0.095-0.491-0.18-0.842-0.086-0.357-0.228-0.763-0.425-1.217-0.197-0.454-0.47-0.942-0.821-1.466-0.356-0.515-0.815-1.041-1.376-1.576v0c-0.335-0.309-0.744-0.596-1.227-0.86-0.477-0.266-0.978-0.497-1.504-0.694-0.531-0.189-1.058-0.328-1.58-0.417-0.528-0.088-1.003-0.097-1.423-0.028v0c0.008-0.481-0.007-1.002-0.047-1.563-0.032-0.562-0.105-1.182-0.217-1.86v0c-0.191-1.151-0.449-2.098-0.775-2.841v0c0.496 0.1 1.319 0.112 2.469 0.037 1.151-0.069 2.7-0.265 4.647-0.588v0c0.993-0.165 2.044-0.346 3.153-0.544 1.104-0.19 2.156-0.388 3.156-0.594 0.993-0.205 1.881-0.413 2.663-0.624 0.782-0.217 1.354-0.431 1.719-0.64v0c-0.031 0.424-0.031 0.87-0.001 1.339 0.025 0.476 0.086 1.009 0.184 1.601v0c0.225 1.355 0.493 2.466 0.806 3.333v0c-1.158 0.192-1.975 0.459-2.452 0.802-0.484 0.344-0.679 0.798-0.584 1.364v0c0.072 0.434 0.31 0.993 0.713 1.676 0.404 0.683 0.889 1.451 1.457 2.303 0.575 0.858 1.188 1.783 1.839 2.776 0.652 1 1.264 2.037 1.833 3.112v0c0.231-1.093 0.506-2.186 0.825-3.279 0.312-1.092 0.599-2.137 0.859-3.133 0.266-1.004 0.478-1.927 0.635-2.771 0.157-0.844 0.189-1.552 0.094-2.124v0c-0.107-0.645-0.41-1.023-0.908-1.137-0.5-0.12-1.256-0.096-2.269 0.072v0c-0.012-0.478-0.044-0.996-0.095-1.555-0.052-0.559-0.134-1.177-0.247-1.855v0c-0.098-0.592-0.209-1.121-0.334-1.586-0.125-0.466-0.258-0.886-0.402-1.262v0c0.797 0.037 1.721 0.029 2.774-0.024 1.06-0.047 2.271-0.184 3.632-0.409v0c2.039-0.338 3.686-0.675 4.941-1.012 1.263-0.331 2.081-0.612 2.455-0.843v0c-0.031 0.424-0.031 0.87-0.001 1.338 0.025 0.476 0.086 1.009 0.184 1.602v0c0.225 1.355 0.493 2.466 0.806 3.333v0c-0.71 0.118-1.284 0.247-1.72 0.386-0.436 0.14-0.779 0.295-1.028 0.465-0.241 0.175-0.398 0.37-0.47 0.584-0.071 0.221-0.083 0.477-0.035 0.767v0c0.072 0.434 0.31 0.993 0.713 1.675 0.404 0.683 0.889 1.451 1.457 2.303 0.575 0.858 1.188 1.783 1.839 2.777 0.652 1 1.264 2.037 1.833 3.112v0c0.231-1.093 0.506-2.186 0.825-3.279 0.312-1.092 0.599-2.137 0.859-3.133 0.266-1.004 0.478-1.927 0.635-2.771 0.157-0.844 0.189-1.552 0.094-2.124v0c-0.107-0.645-0.439-1.019-0.997-1.122-0.552-0.111-1.286-0.091-2.199 0.06v0c0.01-0.921-0.098-2.058-0.323-3.413v0c-0.191-1.151-0.446-2.099-0.766-2.843v0c0.234 0.11 0.605 0.167 1.113 0.17 0.513-0.004 1.098-0.04 1.756-0.108 0.658-0.069 1.355-0.161 2.093-0.277 0.739-0.109 1.447-0.22 2.125-0.331v0c0.592-0.098 1.247-0.224 1.964-0.377 0.718-0.153 1.401-0.31 2.051-0.472 0.65-0.155 1.222-0.311 1.717-0.467 0.494-0.156 0.822-0.299 0.983-0.426v0c-0.031 0.424-0.025 0.869 0.019 1.334 0.051 0.471 0.126 1.003 0.224 1.595v0c0.225 1.355 0.49 2.466 0.796 3.335v0c-0.881 0.146-1.709 0.557-2.482 1.233-0.774 0.669-1.417 1.543-1.927 2.62v0c-0.298 0.61-0.514 1.2-0.65 1.77-0.136 0.563-0.226 1.085-0.267 1.565-0.05 0.475-0.06 0.899-0.032 1.272 0.036 0.379 0.073 0.687 0.112 0.924v0c0.07 0.421 0.247 0.655 0.532 0.703v0c-0.412 0.204-0.849 0.627-1.309 1.271-0.461 0.644-0.874 1.432-1.24 2.365-0.367 0.926-0.637 1.947-0.81 3.064-0.166 1.116-0.156 2.236 0.03 3.36v0c0.037 0.224 0.082 0.436 0.136 0.636 0.059 0.193 0.12 0.375 0.182 0.548v0c-0.158-0.055-0.473-0.08-0.945-0.076-0.466 0.003-0.996 0.023-1.592 0.061-0.594 0.044-1.2 0.101-1.816 0.169-0.617 0.069-1.149 0.14-1.597 0.214v0c-0.487 0.081-0.977 0.182-1.47 0.305-0.5 0.123-0.978 0.253-1.435 0.39-0.458 0.13-0.879 0.264-1.262 0.402-0.383 0.138-0.687 0.259-0.912 0.364v0c-0.005-0.114-0.017-0.247-0.036-0.4-0.012-0.153-0.029-0.296-0.051-0.427v0c-0.072-0.434-0.19-0.921-0.354-1.462-0.164-0.54-0.388-1.115-0.671-1.723-0.282-0.602-0.633-1.23-1.052-1.884-0.425-0.646-0.931-1.292-1.517-1.938v0c-0.293 0.596-0.532 1.234-0.717 1.913-0.184 0.686-0.319 1.357-0.406 2.014-0.094 0.658-0.138 1.287-0.133 1.887-0.001 0.608 0.036 1.136 0.11 1.583v0c0.037 0.224 0.086 0.435 0.146 0.635 0.052 0.194 0.11 0.377 0.172 0.549v0c-0.158-0.055-0.47-0.081-0.935-0.078-0.472 0.004-1.006 0.025-1.602 0.063-0.594 0.044-1.2 0.101-1.816 0.17-0.617 0.069-1.143 0.139-1.577 0.21v0c-0.48 0.08-0.97 0.181-1.47 0.305-0.5 0.123-0.982 0.254-1.445 0.392-0.465 0.131-0.882 0.265-1.252 0.4-0.376 0.137-0.68 0.258-0.913 0.364z" fill="black"></path><path d="M53.87 38.043v0c0.172-0.39 0.287-0.832 0.343-1.326 0.056-0.5 0.061-0.999 0.016-1.498v0c-0.046-0.518-0.15-1.034-0.309-1.548-0.166-0.507-0.35-0.912-0.551-1.216v0c0.418-0.185 0.789-0.456 1.112-0.813 0.316-0.356 0.582-0.748 0.798-1.176 0.216-0.428 0.388-0.861 0.515-1.301 0.122-0.433 0.19-0.83 0.205-1.193v0c0.089 0.025 0.18 0.034 0.273 0.026 0.1-0.009 0.206-0.018 0.319-0.029v0c1.202-0.108 2.643-0.351 4.322-0.729 1.68-0.378 3.492-0.845 5.436-1.401v0c0.907-0.255 1.652-0.54 2.233-0.853 0.574-0.319 1.025-0.661 1.354-1.025 0.322-0.364 0.536-0.744 0.64-1.142 0.104-0.404 0.137-0.826 0.098-1.264v0c-0.071-0.79-0.325-1.383-0.762-1.779-0.437-0.396-1.14-0.55-2.11-0.463v0c-1.282 0.115-2.199 0.522-2.752 1.22-0.547 0.692-0.755 1.768-0.624 3.229v0c-0.55-0.085-1.205-0.119-1.967-0.105-0.769 0.009-1.615 0.055-2.538 0.138v0c-0.471 0.042-0.945 0.095-1.422 0.157-0.477 0.056-0.943 0.118-1.399 0.186-0.45 0.06-0.868 0.135-1.255 0.223-0.381 0.081-0.708 0.167-0.98 0.259v0c0.054-0.514 0.09-1.089 0.106-1.726 0.016-0.637-0.013-1.378-0.089-2.221v0c-0.025-0.279-0.051-0.534-0.079-0.766-0.035-0.238-0.072-0.469-0.112-0.693-0.047-0.223-0.105-0.459-0.174-0.707-0.069-0.248-0.161-0.521-0.274-0.819v0c0.684-0.061 1.425-0.198 2.222-0.41 0.798-0.212 1.571-0.466 2.321-0.761 0.75-0.295 1.427-0.623 2.03-0.985 0.603-0.369 1.062-0.738 1.377-1.108v0c0.305 0.12 0.599 0.221 0.88 0.303 0.288 0.081 0.612 0.143 0.971 0.184 0.365 0.041 0.785 0.057 1.259 0.047 0.474-0.009 1.044-0.043 1.708-0.103v0c1.521-0.136 2.815-0.333 3.882-0.589 1.062-0.249 1.817-0.524 2.266-0.826v0c0.302 0.461 0.716 0.89 1.239 1.285 0.524 0.395 1.089 0.726 1.696 0.992 0.606 0.26 1.212 0.457 1.82 0.59 0.608 0.14 1.155 0.188 1.639 0.144v0l0.219-0.02c-0.115 0.365-0.19 0.867-0.226 1.507-0.042 0.646-0.062 1.364-0.058 2.153 0.004 0.796 0.032 1.63 0.084 2.503 0.045 0.879 0.093 1.745 0.143 2.598 0.05 0.859 0.109 1.66 0.176 2.403 0.067 0.744 0.123 1.374 0.169 1.893v0c0.06 0.664 0.165 1.2 0.315 1.608 0.156 0.401 0.411 0.699 0.763 0.896 0.352 0.196 0.834 0.31 1.447 0.342 0.618 0.025 1.412-0.006 2.381-0.094v0c-0.049 0.199-0.087 0.443-0.115 0.734-0.034 0.291-0.06 0.598-0.078 0.92-0.017 0.33-0.025 0.658-0.022 0.986 0.003 0.328 0.016 0.628 0.041 0.9v0c0.114 1.268 0.368 2.276 0.763 3.024v0c-0.401-0.145-1.045-0.234-1.932-0.268-0.887-0.034-1.848-0.005-2.883 0.088v0c-1.169 0.105-2.199 0.254-3.093 0.448-0.886 0.193-1.58 0.403-2.082 0.628v0c-0.213-0.878-0.526-1.569-0.939-2.074-0.413-0.498-0.819-0.887-1.219-1.166v0c-0.548 0.23-1.045 0.515-1.49 0.857-0.445 0.341-0.834 0.704-1.167 1.089-0.334 0.378-0.598 0.753-0.793 1.125-0.195 0.366-0.314 0.681-0.356 0.946v0c-0.38-0.06-0.724-0.126-1.032-0.199-0.308-0.073-0.622-0.138-0.942-0.197-0.313-0.059-0.651-0.099-1.014-0.12-0.363-0.014-0.786 0-1.272 0.044v0c-0.505 0.045-1.034 0.116-1.587 0.213-0.553 0.103-1.101 0.223-1.645 0.358-0.543 0.136-1.05 0.275-1.518 0.418-0.469 0.142-0.869 0.275-1.199 0.399v0c-0.319-0.426-0.702-0.844-1.147-1.253-0.445-0.409-0.916-0.775-1.414-1.098-0.491-0.324-0.996-0.577-1.514-0.758-0.512-0.182-0.994-0.262-1.447-0.241zM63.912 32.583v0c0.035 0.392 0.149 0.73 0.342 1.014 0.186 0.284 0.414 0.515 0.685 0.691 0.271 0.183 0.564 0.314 0.879 0.393 0.322 0.078 0.628 0.104 0.92 0.078v0c0.531-0.048 1.069-0.203 1.615-0.466 0.539-0.263 1.023-0.644 1.454-1.144 0.423-0.506 0.764-1.146 1.022-1.919 0.258-0.78 0.372-1.707 0.343-2.782v0c-1.391 0.158-2.562 0.357-3.511 0.596-0.955 0.246-1.719 0.536-2.291 0.868-0.572 0.339-0.969 0.729-1.191 1.171-0.227 0.449-0.316 0.949-0.267 1.5z" fill="black"></path><path d="M88.137 38.827v0c0.123-0.423 0.202-0.928 0.235-1.516 0.04-0.588 0.053-1.168 0.039-1.741v0c-0.012-0.52-0.058-1.039-0.137-1.557-0.079-0.518-0.174-1.03-0.286-1.534v0c0.913-0.021 1.665-0.079 2.257-0.173 0.591-0.094 1.064-0.248 1.419-0.463 0.355-0.208 0.598-0.501 0.73-0.878 0.124-0.383 0.18-0.864 0.166-1.444v0l-0.159-6.788c-0.03-0.699-0.133-1.254-0.309-1.663-0.17-0.416-0.401-0.731-0.693-0.944-0.285-0.213-0.638-0.352-1.06-0.416-0.415-0.064-0.882-0.089-1.402-0.077v0l-0.76 0.018c0.126-0.323 0.229-0.776 0.309-1.358 0.086-0.582 0.122-1.19 0.107-1.823v0c-0.015-0.62-0.072-1.209-0.172-1.766-0.106-0.558-0.237-1.008-0.391-1.351v0c0.609 0.072 1.35 0.122 2.224 0.148 0.881 0.026 1.811 0.028 2.79 0.004v0c0.713-0.017 1.433-0.05 2.159-0.1 0.719-0.044 1.421-0.11 2.106-0.2 0.685-0.089 1.326-0.201 1.922-0.335 0.597-0.127 1.13-0.287 1.599-0.478v0c-0.106 0.329-0.175 0.661-0.206 0.995-0.032 0.334-0.044 0.675-0.036 1.021v0c0.011 0.473 0.055 0.936 0.132 1.388 0.071 0.452 0.151 0.897 0.242 1.334v0c0.714-0.243 1.3-0.577 1.757-1.001 0.45-0.431 0.813-0.883 1.088-1.356 0.275-0.48 0.484-0.962 0.626-1.445 0.142-0.483 0.259-0.906 0.351-1.269v0c0.21 0.128 0.532 0.238 0.968 0.328 0.436 0.096 0.934 0.175 1.496 0.235 0.562 0.06 1.159 0.103 1.793 0.128 0.641 0.032 1.261 0.04 1.861 0.026v0c0.54-0.013 1.086-0.042 1.639-0.088 0.552-0.046 1.071-0.112 1.555-0.197 0.485-0.085 0.923-0.185 1.314-0.301 0.384-0.116 0.674-0.249 0.871-0.4v0c0.552 1.374 1.233 2.532 2.042 3.473 0.816 0.941 1.884 1.59 3.206 1.945v0c-0.252 0.333-0.471 0.688-0.655 1.066-0.185 0.378-0.341 0.808-0.47 1.291-0.129 0.49-0.219 1.042-0.271 1.657-0.045 0.621-0.059 1.338-0.04 2.151v0l0.129 5.499c0.014 0.58 0.108 1.058 0.284 1.434 0.182 0.369 0.449 0.65 0.8 0.841 0.358 0.198 0.818 0.331 1.38 0.398 0.562 0.067 1.236 0.091 2.022 0.072v0c-0.049 0.195-0.094 0.399-0.136 0.614-0.042 0.214-0.076 0.455-0.103 0.722-0.027 0.274-0.05 0.585-0.068 0.932-0.018 0.354-0.022 0.764-0.011 1.231v0c0.011 0.473 0.053 0.986 0.126 1.537 0.073 0.552 0.187 0.989 0.341 1.313v0c-0.508-0.068-1.11-0.131-1.805-0.188-0.695-0.057-1.436-0.106-2.224-0.148-0.794-0.035-1.618-0.059-2.472-0.072-0.854-0.013-1.694-0.01-2.521 0.009v0c-0.673 0.016-1.363 0.045-2.068 0.089-0.706 0.037-1.392 0.093-2.057 0.168-0.665 0.069-1.287 0.147-1.865 0.234-0.571 0.087-1.053 0.185-1.443 0.294v0c0.042-0.194 0.08-0.422 0.114-0.683 0.034-0.261 0.06-0.548 0.079-0.862 0.019-0.307 0.032-0.624 0.038-0.951 0.012-0.327 0.015-0.637 0.008-0.931v0c-0.004-0.16-0.019-0.38-0.045-0.659-0.02-0.273-0.046-0.552-0.08-0.838-0.033-0.286-0.073-0.558-0.119-0.818-0.046-0.259-0.094-0.461-0.144-0.607v0c0.553-0.013 1.012-0.05 1.377-0.112 0.365-0.069 0.659-0.202 0.881-0.401 0.222-0.205 0.378-0.499 0.47-0.881 0.084-0.382 0.119-0.89 0.104-1.523v0l-0.119-5.078c-0.015-0.64-0.092-1.242-0.233-1.805-0.147-0.563-0.358-1.059-0.635-1.486-0.277-0.427-0.631-0.762-1.064-1.005-0.426-0.243-0.939-0.358-1.538-0.344v0c-0.413 0.01-0.955 0.092-1.625 0.248-0.67 0.156-1.331 0.408-1.982 0.757-0.652 0.349-1.211 0.809-1.679 1.379-0.467 0.578-0.69 1.28-0.67 2.107v0l-0.02 0 0.148 5.448c0.025 1.053 0.369 1.785 1.031 2.197 0.656 0.405 1.571 0.593 2.744 0.565v0c-0.092 0.342-0.159 0.767-0.2 1.275-0.048 0.508-0.066 1.045-0.052 1.612v0c0.015 0.62 0.056 1.242 0.124 1.868 0.061 0.625 0.154 1.157 0.277 1.594v0c-1.043-0.136-2.283-0.25-3.719-0.343-1.436-0.086-3.187-0.105-5.252-0.057v0c-0.78 0.018-1.579 0.05-2.399 0.096-0.826 0.039-1.615 0.098-2.366 0.176-0.759 0.071-1.46 0.151-2.105 0.239-0.651 0.089-1.189 0.188-1.614 0.298z" fill="black"></path><path d="M128.423 32.998v0c0.221-0.41 0.486-1.261 0.797-2.553 0.317-1.286 0.533-3.084 0.648-5.395v0c0.113-2.291 0.076-4.091-0.113-5.402-0.182-1.317-0.362-2.191-0.542-2.62v0c0.902-0.022 1.798-0.175 2.686-0.458 0.895-0.283 1.734-0.645 2.517-1.087 0.776-0.442 1.465-0.935 2.066-1.479 0.595-0.551 1.046-1.113 1.355-1.685v0c0.346 0.297 0.911 0.539 1.696 0.724 0.792 0.186 1.65 0.302 2.576 0.348v0c0.539 0.027 1.07 0.026 1.592-0.001 0.522-0.021 1.004-0.06 1.448-0.119 0.444-0.065 0.838-0.135 1.182-0.212 0.345-0.083 0.609-0.177 0.795-0.281v0c0.323 0.75 0.752 1.402 1.284 1.956 0.533 0.56 1.182 1.006 1.947 1.338v0l0.311-6.292c0.021-0.7-0.088-1.266-0.326-1.698-0.239-0.426-0.56-0.759-0.962-0.999-0.409-0.24-0.877-0.411-1.407-0.51-0.536-0.1-1.087-0.164-1.652-0.192v0l-0.779-0.039c0.143-0.32 0.278-0.764 0.406-1.331 0.122-0.575 0.199-1.178 0.23-1.811v0c0.031-0.619 0.017-1.221-0.041-1.804-0.058-0.577-0.152-1.042-0.281-1.396v0c0.304 0.068 0.688 0.131 1.152 0.187 0.458 0.056 0.973 0.108 1.544 0.157 0.565 0.055 1.176 0.105 1.835 0.151 0.658 0.053 1.327 0.096 2.006 0.129v0c0.932 0.046 1.869 0.076 2.809 0.089 0.947 0.014 1.849 0.008 2.704-0.016 0.856-0.024 1.639-0.076 2.351-0.154 0.718-0.078 1.308-0.196 1.769-0.353v0c-0.371 0.622-0.693 1.317-0.964 2.085-0.265 0.768-0.486 1.588-0.662 2.46-0.183 0.872-0.332 1.786-0.447 2.741-0.114 0.956-0.196 1.929-0.244 2.922v0l-0.242 4.874c-0.05 1.005-0.067 1.896-0.052 2.67 0.008 0.775 0.062 1.435 0.162 1.981 0.106 0.546 0.265 0.984 0.476 1.315 0.21 0.337 0.492 0.572 0.846 0.703v0l-0.02-0.001c-0.297 0.072-0.57 0.255-0.818 0.55-0.242 0.295-0.446 0.659-0.615 1.091-0.168 0.432-0.303 0.919-0.402 1.462-0.1 0.542-0.164 1.09-0.192 1.642v0l-0.147 2.977c-0.066 1.332 0.163 2.301 0.687 2.907 0.524 0.6 1.243 0.923 2.155 0.968v0c-0.098 0.356-0.18 0.809-0.248 1.359-0.067 0.551-0.116 1.126-0.145 1.725v0c-0.03 0.606-0.043 1.213-0.04 1.821 0.003 0.614 0.043 1.093 0.119 1.437v0c-0.222-0.091-0.518-0.183-0.888-0.274-0.369-0.092-0.769-0.178-1.199-0.26-0.43-0.075-0.867-0.14-1.312-0.195-0.444-0.055-0.863-0.093-1.256-0.112v0c-0.926-0.046-1.738-0.023-2.436 0.07-0.692 0.099-1.302 0.209-1.828 0.33v0c-0.021-0.655-0.187-1.348-0.498-2.078-0.317-0.737-0.728-1.401-1.233-1.993v0c-0.406 0.24-0.791 0.532-1.155 0.874-0.371 0.342-0.699 0.696-0.984 1.063-0.292 0.366-0.54 0.738-0.746 1.114-0.205 0.37-0.345 0.707-0.42 1.011v0c-0.482-0.251-1.194-0.483-2.138-0.697-0.937-0.22-2.015-0.36-3.234-0.42v0c-1.192-0.059-2.272-0.026-3.238 0.1-0.967 0.119-1.683 0.28-2.147 0.484v0c-0.252-0.58-0.645-1.193-1.18-1.841-0.542-0.648-1.173-1.253-1.893-1.815-0.72-0.563-1.513-1.049-2.381-1.46-0.867-0.41-1.749-0.671-2.644-0.782zM140.014 25.582v0c-0.062 1.252-0.029 2.328 0.1 3.229 0.122 0.9 0.366 1.65 0.73 2.249 0.364 0.599 0.846 1.05 1.445 1.353 0.605 0.31 1.354 0.488 2.246 0.532v0c0.946 0.047 1.727-0.095 2.344-0.425 0.624-0.33 1.121-0.802 1.492-1.418 0.371-0.616 0.645-1.356 0.821-2.222 0.17-0.866 0.28-1.808 0.33-2.827v0c0.051-1.025 0.034-1.967-0.05-2.826-0.091-0.866-0.29-1.62-0.599-2.262-0.309-0.643-0.757-1.152-1.346-1.529-0.582-0.383-1.345-0.597-2.291-0.644v0c-0.892-0.044-1.655 0.052-2.287 0.288-0.625 0.229-1.149 0.617-1.57 1.163-0.421 0.553-0.737 1.268-0.947 2.146-0.217 0.877-0.356 1.941-0.418 3.193z" fill="black"></path><path d="M165.072 36.317v0c0.369-0.354 0.683-0.868 0.941-1.543 0.258-0.675 0.477-1.415 0.657-2.219 0.186-0.804 0.336-1.619 0.45-2.445 0.121-0.825 0.218-1.552 0.29-2.181v0c0.076-0.662 0.139-1.417 0.189-2.263 0.043-0.847 0.058-1.678 0.043-2.492-0.015-0.807-0.068-1.544-0.16-2.212-0.098-0.669-0.249-1.163-0.454-1.481v0c0.709 0.081 1.511-0.012 2.407-0.279 0.903-0.266 1.769-0.623 2.599-1.071 0.83-0.455 1.562-0.959 2.196-1.511 0.64-0.551 1.063-1.076 1.267-1.576v0c0.853 0.406 1.878 0.745 3.074 1.016 1.197 0.271 2.693 0.509 4.488 0.715v0c1.265 0.145 2.317 0.191 3.155 0.139 0.845-0.051 1.541-0.186 2.089-0.405v0c0.206 0.601 0.605 1.163 1.196 1.687 0.584 0.523 1.235 0.99 1.954 1.401 0.711 0.41 1.434 0.751 2.168 1.023 0.727 0.271 1.335 0.445 1.822 0.521v0c-0.164 0.256-0.317 0.541-0.46 0.853-0.143 0.312-0.276 0.683-0.399 1.112-0.123 0.429-0.238 0.936-0.345 1.52-0.107 0.585-0.206 1.272-0.296 2.06v0c-0.063 0.55-0.111 1.088-0.144 1.614-0.039 0.519-0.057 1-0.054 1.443-0.004 0.442 0.005 0.833 0.027 1.171 0.015 0.337 0.047 0.589 0.095 0.756v0c-0.4-0.079-0.94-0.168-1.621-0.266-0.673-0.104-1.411-0.215-2.216-0.334-0.806-0.112-1.648-0.225-2.528-0.34-0.88-0.107-1.718-0.207-2.512-0.297v0c-0.941-0.108-1.875-0.211-2.803-0.311-0.929-0.093-1.887-0.196-2.874-0.308v0c-0.828-0.095-1.492-0.1-1.991-0.017-0.5 0.09-0.891 0.247-1.171 0.47-0.28 0.223-0.478 0.509-0.591 0.859-0.114 0.349-0.195 0.733-0.243 1.15v0c-0.072 0.629 0.015 1.22 0.261 1.771 0.251 0.559 0.622 1.047 1.11 1.465 0.495 0.426 1.095 0.783 1.8 1.072 0.706 0.282 1.469 0.47 2.291 0.564v0c0.682 0.078 1.237 0.041 1.664-0.112 0.428-0.159 0.77-0.395 1.027-0.708 0.257-0.313 0.441-0.691 0.552-1.134 0.119-0.449 0.207-0.932 0.267-1.449v0c0.184 0.088 0.469 0.178 0.855 0.269 0.385 0.091 0.802 0.176 1.249 0.253 0.447 0.078 0.902 0.15 1.364 0.217 0.461 0.073 0.861 0.129 1.199 0.167v0c0.338 0.039 0.726 0.073 1.166 0.103 0.439 0.037 0.875 0.067 1.308 0.089 0.427 0.022 0.832 0.031 1.215 0.029 0.376-0.004 0.681-0.026 0.913-0.067v0c-0.054 0.175-0.117 0.409-0.191 0.703-0.074 0.294-0.143 0.608-0.208 0.942-0.066 0.341-0.125 0.68-0.177 1.017-0.052 0.336-0.091 0.617-0.117 0.842v0c-0.091 0.795-0.137 1.434-0.138 1.917 0.005 0.484 0.049 0.918 0.132 1.303v0l-0.437-0.05c-0.662-0.076-1.348-0.09-2.058-0.044-0.709 0.04-1.4 0.122-2.071 0.246-0.666 0.132-1.3 0.304-1.901 0.517-0.594 0.207-1.111 0.44-1.55 0.699v0c-0.209-0.171-0.506-0.33-0.892-0.475-0.385-0.151-0.812-0.291-1.281-0.418-0.469-0.127-0.963-0.238-1.482-0.33-0.526-0.094-1.031-0.168-1.514-0.224v0c-0.583-0.067-1.192-0.113-1.826-0.138-0.635-0.019-1.246-0.018-1.832 0.001-0.586 0.02-1.117 0.053-1.592 0.1-0.482 0.046-0.857 0.1-1.126 0.163v0c-0.098-0.434-0.423-0.937-0.974-1.51-0.546-0.566-1.202-1.11-1.967-1.634-0.759-0.523-1.572-0.982-2.44-1.377-0.874-0.395-1.682-0.635-2.424-0.72v0c-0.086-0.01-0.159-0.015-0.219-0.015-0.068 0.006-0.135 0.005-0.201-0.003zM176.169 25.005l6.458 0.739c0.642 0.073 1.159 0.106 1.549 0.097 0.383-0.003 0.685-0.066 0.907-0.188 0.215-0.123 0.367-0.307 0.456-0.552 0.082-0.246 0.147-0.577 0.194-0.995v0c0.089-0.775-0.17-1.445-0.776-2.011-0.607-0.559-1.613-0.919-3.017-1.08v0c-0.874-0.1-1.634-0.113-2.28-0.039-0.653 0.073-1.211 0.264-1.676 0.573-0.471 0.308-0.853 0.738-1.144 1.288-0.292 0.557-0.515 1.28-0.671 2.168z" fill="black"></path><path d="M196.936 44.332v0c0.198-0.391 0.371-0.872 0.519-1.442 0.155-0.568 0.283-1.135 0.383-1.699v0c0.091-0.512 0.149-1.03 0.175-1.553 0.025-0.524 0.036-1.043 0.032-1.559v0c0.893 0.158 1.638 0.25 2.237 0.275 0.605 0.026 1.099-0.032 1.483-0.173 0.389-0.134 0.686-0.373 0.889-0.716 0.198-0.351 0.347-0.812 0.448-1.383v0l1.187-6.685c0.109-0.692 0.121-1.255 0.036-1.69-0.091-0.443-0.258-0.797-0.502-1.064-0.237-0.266-0.556-0.471-0.957-0.617-0.394-0.144-0.847-0.262-1.359-0.353v0l-0.749-0.133c0.187-0.292 0.381-0.714 0.581-1.268 0.193-0.555 0.345-1.144 0.456-1.767v0c0.108-0.61 0.169-1.199 0.181-1.766 0.006-0.568-0.033-1.035-0.117-1.402v0c0.454 0.148 1.004 0.297 1.648 0.445 0.644 0.148 1.343 0.289 2.098 0.423v0c0.768 0.136 1.569 0.258 2.403 0.366 0.828 0.106 1.642 0.19 2.444 0.251 0.803 0.054 1.565 0.071 2.287 0.05 0.721-0.021 1.355-0.081 1.9-0.18v0c-0.169 0.302-0.302 0.613-0.399 0.934-0.098 0.321-0.178 0.659-0.241 1.014v0c-0.087 0.492-0.139 0.994-0.155 1.506-0.016 0.512-0.026 1.008-0.031 1.487v0c0.724-0.075 1.499-0.225 2.325-0.45 0.826-0.226 1.609-0.503 2.351-0.832 0.749-0.328 1.4-0.699 1.955-1.116 0.548-0.417 0.92-0.856 1.117-1.315v0c0.417 0.358 0.987 0.676 1.71 0.954 0.716 0.276 1.557 0.5 2.521 0.671v0c0.381 0.068 0.783 0.126 1.209 0.174 0.418 0.047 0.829 0.079 1.232 0.096 0.404 0.011 0.78-0.01 1.128-0.063 0.348-0.053 0.643-0.15 0.884-0.29v0c-0.188 0.298-0.361 0.681-0.518 1.147-0.157 0.466-0.305 0.975-0.443 1.526-0.137 0.544-0.263 1.101-0.378 1.669-0.12 0.561-0.224 1.091-0.313 1.59v0c-0.089 0.499-0.172 1.066-0.251 1.703-0.079 0.636-0.148 1.253-0.207 1.852-0.051 0.594-0.079 1.113-0.084 1.559-0.005 0.446 0.022 0.732 0.082 0.858v0c-0.508-0.226-1.152-0.452-1.932-0.678-0.771-0.232-1.59-0.424-2.456-0.579v0c-0.866-0.154-1.692-0.253-2.477-0.297-0.79-0.052-1.436-0.055-1.938-0.009v0c0.305-1.72 0.322-2.959 0.051-3.718-0.265-0.758-0.785-1.206-1.559-1.343v0c-0.381-0.068-0.82-0.034-1.318 0.101-0.491 0.136-0.971 0.379-1.44 0.73-0.467 0.344-0.899 0.792-1.295 1.344-0.395 0.546-0.684 1.202-0.867 1.969v0l-0.83 4.788c-0.101 0.571-0.021 1.073 0.241 1.506 0.263 0.426 0.666 0.788 1.208 1.088 0.542 0.306 1.206 0.569 1.993 0.79 0.787 0.221 1.653 0.415 2.598 0.583v0c-0.151 0.318-0.301 0.722-0.449 1.21-0.141 0.49-0.261 1.013-0.36 1.571v0c-0.108 0.61-0.194 1.228-0.258 1.854-0.064 0.625-0.078 1.164-0.043 1.617v0c-0.498-0.17-1.118-0.358-1.86-0.564-0.735-0.205-1.548-0.417-2.437-0.635-0.89-0.212-1.837-0.424-2.842-0.637-0.998-0.211-2.003-0.406-3.014-0.585v0c-0.768-0.136-1.633-0.276-2.597-0.421-0.955-0.149-1.904-0.277-2.846-0.383-0.935-0.112-1.806-0.202-2.613-0.271-0.807-0.069-1.426-0.091-1.857-0.065z" fill="black"></path></g></svg></g></svg></g><g transform="matrix(1,0,0,1,118.31980799999998,89.1288819067971)"><svg viewBox="0 0 158.88038400000002 28.001469573111176" height="28.001469573111176" width="158.88038400000002"><g transform="matrix(1,0,0,1,0,0)"><svg width="158.88038400000002" viewBox="1.32 -39.21 339.91 59.91" height="28.001469573111176" data-palette-color="url(#4c29d5af-1f5f-4810-a697-64ac7eceda06)"><path d="M25.29-17.82L25.29-17.82Q23.24-19.29 20.02-19.29L20.02-19.29Q16.99-19.29 14.4-18.16L14.4-18.16Q9.52-16.11 7.71-12.89L7.71-12.89Q6.93-11.43 6.93-9.77L6.93-9.77Q6.93-9.47 6.93-8.13 6.93-6.79 7.42-4.52 7.91-2.25 7.91 0.1L7.91 0.1Q6.88 0.15 6.25 0.34 5.62 0.54 5.18 0.54 4.74 0.54 4.42 0.15 4.1-0.24 3.71-1.37L3.71-1.37Q3.66-1.66 3.52-3.03 3.37-4.39 3.15-6.35 2.93-8.3 2.66-10.62 2.39-12.94 2.15-15.19L2.15-15.19Q1.61-20.07 1.32-22.36L1.32-22.36Q1.32-23.54 3.03-23.54L3.03-23.54Q4.05-23.54 4.64-22.68 5.22-21.83 5.57-20.73 5.91-19.63 6.03-18.55 6.15-17.48 6.25-17.04L6.25-17.04Q12.7-22.8 22.27-22.8L22.27-22.8Q23.34-22.8 24.51-22.75L24.51-22.75Q24.8-22.8 25.24-22.8 25.68-22.8 26.12-22.22L26.12-22.22Q26.66-21.53 26.66-20.56L26.66-20.56Q26.66-18.12 25.29-17.82ZM38.86-3.42L38.86-3.42Q43.16-3.42 51.8-7.32L51.8-7.32Q52.34-7.32 52.68-6.96 53.02-6.59 53.02-6.1L53.02-6.1Q51.07-2.78 45.55-0.93 40.04 0.93 35.25-0.29L35.25-0.29Q29.83-1.71 28.66-6.4L28.66-6.4Q28.56-7.32 28.56-8.89 28.56-10.45 29.37-13.01 30.17-15.58 32.13-17.87 34.08-20.17 36.72-21.48 39.35-22.8 42.33-22.8L42.33-22.8Q45.16-22.8 48.68-20.85L48.68-20.85Q50.34-19.92 51.32-18.75 52.29-17.58 52.29-16.36L52.29-16.36Q52.29-16.02 52.24-15.67L52.24-15.67Q52.15-12.7 49.36-11.91L49.36-11.91Q48.14-11.57 46.53-11.57L46.53-11.57 39.5-11.87Q35.98-11.87 34.13-10.35L34.13-10.35Q33.05-9.52 32.61-7.86L32.61-7.86Q33.84-3.42 38.86-3.42ZM47.58-18.51Q46.48-19.29 45.31-19.63 44.14-19.97 43.36-19.97 42.58-19.97 40.82-19.46 39.06-18.95 37.69-18.31L37.69-18.31Q34.32-16.75 34.32-15.04L34.32-15.04Q38.23-14.7 40.18-14.7L40.18-14.7Q45.6-14.7 47.51-15.63L47.51-15.63Q48.68-16.11 48.68-16.85L48.68-16.85Q48.68-17.72 47.58-18.51ZM75.14-8.11L75.14-8.11Q71.48-2.34 65.38-0.98L65.38-0.98Q63.96-0.68 62.81-0.68 61.66-0.68 60.91-0.71 60.15-0.73 59.22-0.93 58.3-1.12 57.51-1.56L57.51-1.56Q55.71-2.59 55.71-4.44L55.71-4.44Q55.51-5.32 55.51-6.42 55.51-7.52 56-9.33 56.49-11.13 57.78-13.23 59.08-15.33 60.93-17.09L60.93-17.09Q64.79-20.8 69.28-21.88L69.28-21.88Q70.6-22.17 71.7-22.17 72.8-22.17 73.68-22.02L73.68-22.02Q76.51-22.02 77.49-18.16L77.49-18.16Q78.12-15.72 78.24-11.35 78.36-6.98 78.49-4.61 78.61-2.25 79.1-0.29L79.1-0.29 76.22-0.29Q76.02-1.61 75.92-2.64 75.83-3.66 75.73-4.54L75.73-4.54Q75.48-6.59 75.14-8.11ZM74.95-15.67L74.95-15.67Q74.95-18.51 72.16-18.51L72.16-18.51Q71.82-18.55 71.48-18.55L71.48-18.55Q67.91-18.55 63.96-15.14L63.96-15.14Q62.1-13.57 60.79-11.62L60.79-11.62Q58.83-8.84 58.83-6.64L58.83-6.64Q58.83-3.76 62.15-3.22L62.15-3.22Q66.55-3.32 70.55-7.23L70.55-7.23Q72.26-8.94 73.38-10.94L73.38-10.94Q74.95-13.62 74.95-15.67ZM104.48-39.21Q104.48-34.52 104.22-30.05 103.95-25.59 103.73-21.31 103.51-17.04 103.51-12.23 103.51-7.42 104.19-2.05L104.19-2.05Q104.19-0.93 103.78-0.44 103.36 0.05 102.39 0.05L102.39 0.05Q100.09 0.05 100.09-3.76L100.09-3.76 100.09-5.37Q93.16-0.2 88.37-0.2L88.37-0.2Q86.47-0.2 84.49-1.12 82.51-2.05 80.75-4.88L80.75-4.88Q80.51-6.05 80.51-7.28 80.51-8.5 80.97-10.23 81.44-11.96 82.88-13.82 84.32-15.67 86.37-17.09L86.37-17.09Q90.86-20.12 96.09-20.12L96.09-20.12Q98.33-20.12 100.38-19.43L100.38-19.43Q100.38-20.31 100.51-22.51 100.63-24.71 100.77-27.15L100.77-27.15Q101.07-33.5 101.16-34.64 101.26-35.79 101.43-36.6 101.6-37.4 101.95-37.99L101.95-37.99Q102.68-39.21 104.48-39.21L104.48-39.21ZM84.07-7.67L84.07-7.67Q84.07-3.81 86.86-3.81L86.86-3.81Q87.3-3.81 87.83-3.91L87.83-3.91Q89.84-3.91 92.77-5.08L92.77-5.08Q98.33-7.28 99.55-8.89L99.55-8.89 99.55-15.38Q99.55-17.09 96.77-17.09L96.77-17.09Q96.43-17.14 95.87-17.14 95.31-17.14 94.13-16.89 92.96-16.65 91.5-16.02 90.03-15.38 88.62-14.45L88.62-14.45Q85.64-12.45 84.51-9.77L84.51-9.77Q84.07-8.74 84.07-7.67ZM132.17-21.19L117.32 18.41Q116.3 20.7 114.88 20.7L114.88 20.7Q114.2 20.7 113.88 20.09 113.56 19.48 113.86 18.65L113.86 18.65Q114.93 14.11 116.96 8.3 118.98 2.49 119.67 0.49L119.67 0.49Q117.96-1.22 114.3-6.35L114.3-6.35Q106.78-16.89 106.78-17.92L106.78-17.92Q106.78-17.97 106.83-18.02L106.83-18.02 108.68-19.87Q112.54-16.31 118.74-7.76L118.74-7.76Q120.3-5.62 121.23-4.15L121.23-4.15Q122.26-6.2 122.84-7.69 123.43-9.18 123.79-10.08 124.16-10.99 124.79-12.5L124.79-12.5Q126.45-16.55 129.38-22.8L129.38-22.8Q129.82-23 130.31-23L130.31-23Q131.53-23 132.07-22.36L132.07-22.36Q132.27-22.12 132.27-21.8 132.27-21.48 132.17-21.19L132.17-21.19ZM161.85-4.69L161.85-4.69 161.95-12.5Q161.95-14.36 161.61-15.67L161.61-15.67 154.04-15.67 153.94-19.04 161.26-19.04 161.26-31.64Q161.41-32.08 161.85-32.52L161.85-32.52Q162.53-33.2 163-33.2 163.46-33.2 163.8-33.11 164.15-33.01 164.54-32.42L164.54-32.42Q165.32-29.2 165.32-22.71L165.32-22.71Q165.32-21.09 165.46-19.53L165.46-19.53Q167.03-19.73 168.59-19.73L168.59-19.73Q168.59-19.73 171.13-19.73L171.13-19.73Q172.06-19.73 172.84-19.82L172.84-19.82 172.69-16.31 165.56-16.5 165.81 0.34Q164.93 0.73 164.29 0.73L164.29 0.73Q161.85 0.73 161.85-4.69ZM175.91-9.28L175.91-9.28Q175.91-15.04 180.89-18.55L180.89-18.55Q184.85-21.34 190.41-21.92L190.41-21.92Q190.71-21.92 191.78-21.92 192.85-21.92 194.66-21.29L194.66-21.29Q198.66-19.92 200.13-16.46L200.13-16.46Q200.71-15.09 200.71-14.14 200.71-13.18 200.67-12.79L200.67-12.79Q200.67-6.69 196.03-3.17L196.03-3.17Q191.73 0.05 185.29 0.05L185.29 0.05Q180.65 0.05 178.28-2.1 175.91-4.25 175.91-9.28ZM179.28-8.11L179.28-8.11Q179.28-5.08 180.89-4L180.89-4Q182.11-3.22 184.99-3.22 187.87-3.22 190.07-3.66 192.27-4.1 193.98-5.18L193.98-5.18Q197.64-7.52 197.64-12.45L197.64-12.45Q197.64-15.38 196.08-17.24L196.08-17.24Q194.37-19.24 191.58-19.24L191.58-19.24Q189.68-18.9 187.75-18.51 185.82-18.12 184.11-16.99L184.11-16.99Q180.4-14.6 179.28-8.11ZM246.8-17.82L246.8-17.82Q244.75-19.29 241.53-19.29L241.53-19.29Q238.5-19.29 235.92-18.16L235.92-18.16Q231.03-16.11 229.23-12.89L229.23-12.89Q228.44-11.43 228.44-9.77L228.44-9.77Q228.44-9.47 228.44-8.13 228.44-6.79 228.93-4.52 229.42-2.25 229.42 0.1L229.42 0.1Q228.4 0.15 227.76 0.34 227.13 0.54 226.69 0.54 226.25 0.54 225.93 0.15 225.61-0.24 225.22-1.37L225.22-1.37Q225.17-1.66 225.03-3.03 224.88-4.39 224.66-6.35 224.44-8.3 224.17-10.62 223.9-12.94 223.66-15.19L223.66-15.19Q223.12-20.07 222.83-22.36L222.83-22.36Q222.83-23.54 224.54-23.54L224.54-23.54Q225.56-23.54 226.15-22.68 226.74-21.83 227.08-20.73 227.42-19.63 227.54-18.55 227.66-17.48 227.76-17.04L227.76-17.04Q234.21-22.8 243.78-22.8L243.78-22.8Q244.85-22.8 246.02-22.75L246.02-22.75Q246.32-22.8 246.75-22.8 247.19-22.8 247.63-22.22L247.63-22.22Q248.17-21.53 248.17-20.56L248.17-20.56Q248.17-18.12 246.8-17.82ZM251.64-9.28L251.64-9.28Q251.64-15.04 256.62-18.55L256.62-18.55Q260.57-21.34 266.14-21.92L266.14-21.92Q266.43-21.92 267.5-21.92 268.58-21.92 270.39-21.29L270.39-21.29Q274.39-19.92 275.85-16.46L275.85-16.46Q276.44-15.09 276.44-14.14 276.44-13.18 276.39-12.79L276.39-12.79Q276.39-6.69 271.75-3.17L271.75-3.17Q267.46 0.05 261.01 0.05L261.01 0.05Q256.37 0.05 254-2.1 251.64-4.25 251.64-9.28ZM255-8.11L255-8.11Q255-5.08 256.62-4L256.62-4Q257.84-3.22 260.72-3.22 263.6-3.22 265.8-3.66 267.99-4.1 269.7-5.18L269.7-5.18Q273.36-7.52 273.36-12.45L273.36-12.45Q273.36-15.38 271.8-17.24L271.8-17.24Q270.09-19.24 267.31-19.24L267.31-19.24Q265.4-18.9 263.48-18.51 261.55-18.12 259.84-16.99L259.84-16.99Q256.13-14.6 255-8.11ZM297.73-8.11L297.73-8.11Q294.06-2.34 287.96-0.98L287.96-0.98Q286.54-0.68 285.4-0.68 284.25-0.68 283.49-0.71 282.74-0.73 281.81-0.93 280.88-1.12 280.1-1.56L280.1-1.56Q278.29-2.59 278.29-4.44L278.29-4.44Q278.1-5.32 278.1-6.42 278.1-7.52 278.59-9.33 279.07-11.13 280.37-13.23 281.66-15.33 283.52-17.09L283.52-17.09Q287.37-20.8 291.87-21.88L291.87-21.88Q293.19-22.17 294.28-22.17 295.38-22.17 296.26-22.02L296.26-22.02Q299.09-22.02 300.07-18.16L300.07-18.16Q300.7-15.72 300.83-11.35 300.95-6.98 301.07-4.61 301.19-2.25 301.68-0.29L301.68-0.29 298.8-0.29Q298.61-1.61 298.51-2.64 298.41-3.66 298.31-4.54L298.31-4.54Q298.07-6.59 297.73-8.11ZM297.53-15.67L297.53-15.67Q297.53-18.51 294.75-18.51L294.75-18.51Q294.41-18.55 294.06-18.55L294.06-18.55Q290.5-18.55 286.54-15.14L286.54-15.14Q284.69-13.57 283.37-11.62L283.37-11.62Q281.42-8.84 281.42-6.64L281.42-6.64Q281.42-3.76 284.74-3.22L284.74-3.22Q289.13-3.32 293.14-7.23L293.14-7.23Q294.85-8.94 295.97-10.94L295.97-10.94Q297.53-13.62 297.53-15.67ZM308.03-0.78L308.03-0.78Q306.02 0.05 305.37 0.05 304.71 0.05 304.46-0.1 304.22-0.24 303.93-0.78L303.93-0.78Q303.93-2.39 304.05-4.83 304.17-7.28 304.27-10.06 304.36-12.84 304.36-15.67 304.36-18.51 304.07-20.85L304.07-20.85Q304.07-22.41 306.17-22.41L306.17-22.41Q306.66-22.41 306.93-20.65 307.2-18.9 307.32-17.92 307.44-16.94 307.54-16.5L307.54-16.5Q308.81-18.8 312.57-20.12L312.57-20.12Q314.57-20.75 316.33-20.75 318.09-20.75 319.43-20.34 320.77-19.92 321.72-18.82 322.68-17.72 322.68-15.92L322.68-15.92Q323.94-18.31 328.39-20.21L328.39-20.21Q332.44-22.02 335.66-22.02L335.66-22.02Q340.3-22.02 340.2-18.51L340.2-18.51 341.23-0.34Q341.23-0.1 339.81 0L339.81 0Q337.08 0.2 337.08-0.49L337.08-0.49Q337.03-1.46 337.03-2.44L337.03-2.44 337.27-10.3Q337.27-15.82 336.2-19.04L336.2-19.04Q332.98-18.8 331.24-17.99 329.51-17.19 328.19-15.99 326.87-14.79 325.85-12.79L325.85-12.79Q323.55-8.3 323.55-0.88L323.55-0.88Q323.26 0.15 321.65 0.15L321.65 0.15Q320.58 0.15 319.89-0.22 319.21-0.59 319.35-0.88L319.35-0.88Q320.28-6.05 320.28-8.94L320.28-8.94Q320.28-11.23 319.82-13.31 319.35-15.38 318.67-18.07L318.67-18.07Q311.64-18.07 309.2-12.45L309.2-12.45Q308.12-9.96 308-7.79 307.88-5.62 307.88-4.08 307.88-2.54 308.03-0.78Z" opacity="1" transform="matrix(1,0,0,1,0,0)" fill="black" class="slogan-text-1" id="SvgjsPath1738"></path></svg></g></svg></g></svg></g></svg></g><g></g></svg></g><defs><mask></mask></defs></svg><rect width="395.52" height="117.13035147990828" fill="black" stroke="none" visibility="hidden"></rect></g></mask></svg><rect width="395.52" height="117.13035147990828" fill="black" stroke="none" visibility="hidden"></rect></g></mask><linearGradient x1="0.054" x2="0.941" y1="0.5" y2="0.5" id="4c29d5af-1f5f-4810-a697-64ac7eceda06"><stop stop-color="#0f3054" offset="0"></stop><stop stop-color="#3b8dcb" offset="0.498"></stop><stop stop-color="#0f3054" offset="1"></stop></linearGradient><rect width="395.52" height="117.13035147990828" fill="url(#4c29d5af-1f5f-4810-a697-64ac7eceda06)" mask="url(#d484131b-e65e-420c-8447-2e8969687f9e)" data-fill-palette-color="secondary"></rect></svg><rect width="395.52" height="117.13035147990828" fill="none" stroke="none" visibility="hidden"></rect></g></svg></g></svg>